<svg width="41" height="35" viewBox="0 0 41 35" fill="none" xmlns="http://www.w3.org/2000/svg">
<path d="M0.183594 16.2734C0.535156 16.2474 0.854167 16.1888 1.14062 16.0977C1.42708 16.0065 1.67448 15.9089 1.88281 15.8047C2.09115 15.6875 2.27344 15.5247 2.42969 15.3164C2.59896 15.0951 2.73568 14.9062 2.83984 14.75C2.94401 14.5938 3.02865 14.3594 3.09375 14.0469C3.17188 13.7344 3.22396 13.4935 3.25 13.3242C3.28906 13.1419 3.3151 12.8685 3.32812 12.5039C3.35417 12.1263 3.36719 11.8529 3.36719 11.6836C3.36719 11.5143 3.36719 11.2279 3.36719 10.8242C3.36719 9.97786 3.36719 9.34635 3.36719 8.92969C3.38021 8.51302 3.40625 7.94661 3.44531 7.23047C3.4974 6.51432 3.56901 5.98047 3.66016 5.62891C3.7513 5.26432 3.88802 4.8151 4.07031 4.28125C4.2526 3.73438 4.47396 3.33073 4.73438 3.07031C5.00781 2.79688 5.33984 2.49089 5.73047 2.15234C6.13411 1.8138 6.59635 1.56641 7.11719 1.41016C7.65104 1.25391 8.27604 1.1237 8.99219 1.01953C9.70833 0.902344 10.5026 0.84375 11.375 0.84375V2.60156C10.8542 2.60156 10.3919 2.61458 9.98828 2.64062C9.59766 2.65365 9.23307 2.71875 8.89453 2.83594C8.56901 2.9401 8.28906 3.03125 8.05469 3.10938C7.82031 3.17448 7.60547 3.33073 7.41016 3.57812C7.21484 3.82552 7.05859 4.02734 6.94141 4.18359C6.82422 4.32682 6.72005 4.61328 6.62891 5.04297C6.55078 5.45964 6.49219 5.79818 6.45312 6.05859C6.41406 6.30599 6.38151 6.7487 6.35547 7.38672C6.32943 8.01172 6.31641 8.51953 6.31641 8.91016C6.31641 9.28776 6.31641 9.89974 6.31641 10.7461C6.31641 10.7852 6.31641 10.8112 6.31641 10.8242C6.31641 12.7383 6.09505 14.2096 5.65234 15.2383C5.22266 16.2539 4.40885 16.9049 3.21094 17.1914C4.40885 17.4779 5.22266 18.1354 5.65234 19.1641C6.09505 20.1797 6.31641 21.6445 6.31641 23.5586C6.31641 26.332 6.39453 28.1289 6.55078 28.9492C6.77214 30.1081 7.26693 30.8828 8.03516 31.2734C8.72526 31.612 9.83854 31.7812 11.375 31.7812V33.5391C10.5026 33.5391 9.70833 33.4805 8.99219 33.3633C8.27604 33.2591 7.65104 33.1289 7.11719 32.9727C6.59635 32.8164 6.13411 32.569 5.73047 32.2305C5.33984 31.8919 5.00781 31.5859 4.73438 31.3125C4.47396 31.0521 4.2526 30.6549 4.07031 30.1211C3.88802 29.5742 3.7513 29.125 3.66016 28.7734C3.56901 28.4089 3.4974 27.8685 3.44531 27.1523C3.40625 26.4362 3.38021 25.8698 3.36719 25.4531C3.36719 25.0365 3.36719 24.4049 3.36719 23.5586C3.36719 23.1549 3.36719 22.8685 3.36719 22.6992C3.36719 22.5299 3.35417 22.263 3.32812 21.8984C3.3151 21.5208 3.28906 21.2474 3.25 21.0781C3.22396 20.8958 3.17188 20.6484 3.09375 20.3359C3.02865 20.0234 2.94401 19.7891 2.83984 19.6328C2.73568 19.4766 2.59896 19.2943 2.42969 19.0859C2.27344 18.8646 2.09115 18.7018 1.88281 18.5977C1.67448 18.4805 1.42708 18.3763 1.14062 18.2852C0.854167 18.194 0.535156 18.1354 0.183594 18.1094V16.2734ZM40.2227 16.293V18.1289C39.8711 18.1549 39.5521 18.2135 39.2656 18.3047C38.9792 18.3958 38.7318 18.5 38.5234 18.6172C38.3151 18.7214 38.1263 18.8841 37.957 19.1055C37.8008 19.3138 37.6706 19.4961 37.5664 19.6523C37.4622 19.8086 37.3711 20.043 37.293 20.3555C37.2279 20.668 37.1758 20.9154 37.1367 21.0977C37.1107 21.2669 37.0846 21.5404 37.0586 21.918C37.0456 22.2826 37.0391 22.5495 37.0391 22.7188C37.0391 22.888 37.0391 23.1745 37.0391 23.5781C37.0391 24.4245 37.0326 25.056 37.0195 25.4727C37.0195 25.8893 36.9935 26.4557 36.9414 27.1719C36.9023 27.888 36.8372 28.4284 36.7461 28.793C36.6549 29.1445 36.5182 29.5938 36.3359 30.1406C36.1536 30.6745 35.9258 31.0716 35.6523 31.332C35.3919 31.6055 35.0599 31.9115 34.6562 32.25C34.2656 32.5885 33.8034 32.8359 33.2695 32.9922C32.7487 33.1484 32.1302 33.2786 31.4141 33.3828C30.6979 33.5 29.9036 33.5586 29.0312 33.5586V31.8008C30.5677 31.8008 31.681 31.6315 32.3711 31.293C33.1393 30.9023 33.6341 30.1276 33.8555 28.9688C34.0117 28.1484 34.0898 26.3516 34.0898 23.5781C34.0898 21.6641 34.3047 20.1992 34.7344 19.1836C35.1771 18.1549 35.9974 17.4974 37.1953 17.2109C35.9974 16.9245 35.1771 16.2734 34.7344 15.2578C34.3047 14.2292 34.0898 12.7578 34.0898 10.8438C34.0898 10.8307 34.0898 10.8047 34.0898 10.7656C34.0898 9.91927 34.0898 9.30729 34.0898 8.92969C34.0898 8.53906 34.0768 8.03125 34.0508 7.40625C34.0247 6.76823 33.9922 6.32552 33.9531 6.07812C33.9141 5.81771 33.849 5.47917 33.7578 5.0625C33.6797 4.63281 33.582 4.34635 33.4648 4.20312C33.3477 4.04688 33.1914 3.84505 32.9961 3.59766C32.8008 3.35026 32.5859 3.19401 32.3516 3.12891C32.1172 3.05078 31.8307 2.95964 31.4922 2.85547C31.1667 2.73828 30.8021 2.67318 30.3984 2.66016C30.0078 2.63411 29.5521 2.62109 29.0312 2.62109V0.863281C29.9036 0.863281 30.6979 0.921875 31.4141 1.03906C32.1302 1.14323 32.7487 1.27344 33.2695 1.42969C33.8034 1.58594 34.2656 1.83333 34.6562 2.17188C35.0599 2.51042 35.3919 2.81641 35.6523 3.08984C35.9258 3.35026 36.1536 3.75391 36.3359 4.30078C36.5182 4.83464 36.6549 5.28385 36.7461 5.64844C36.8372 6 36.9023 6.53385 36.9414 7.25C36.9935 7.96615 37.0195 8.53255 37.0195 8.94922C37.0326 9.36589 37.0391 9.9974 37.0391 10.8438C37.0391 11.2474 37.0391 11.5339 37.0391 11.7031C37.0391 11.8724 37.0456 12.1458 37.0586 12.5234C37.0846 12.888 37.1107 13.1615 37.1367 13.3438C37.1758 13.513 37.2279 13.7539 37.293 14.0664C37.3711 14.3789 37.4622 14.6133 37.5664 14.7695C37.6706 14.9258 37.8008 15.1146 37.957 15.3359C38.1263 15.5443 38.3151 15.707 38.5234 15.8242C38.7318 15.9284 38.9792 16.026 39.2656 16.1172C39.5521 16.2083 39.8711 16.2669 40.2227 16.293Z" fill="black"/>
<path d="M17.5664 34.8477H14.7148V1.66406H17.5664V34.8477ZM25.6914 34.8477H22.8398V1.66406H25.6914V34.8477Z" fill="#B1454A"/>
</svg>
