<svg width="262" height="65" viewBox="0 0 262 65" fill="none" xmlns="http://www.w3.org/2000/svg">
<rect x="1" y="1" width="260" height="63" rx="15" stroke="#B1454A"/>
<path d="M8.18359 31.7734C8.53516 31.7474 8.85417 31.6888 9.14062 31.5977C9.42708 31.5065 9.67448 31.4089 9.88281 31.3047C10.0911 31.1875 10.2734 31.0247 10.4297 30.8164C10.599 30.5951 10.7357 30.4062 10.8398 30.25C10.944 30.0938 11.0286 29.8594 11.0938 29.5469C11.1719 29.2344 11.224 28.9935 11.25 28.8242C11.2891 28.6419 11.3151 28.3685 11.3281 28.0039C11.3542 27.6263 11.3672 27.3529 11.3672 27.1836C11.3672 27.0143 11.3672 26.7279 11.3672 26.3242C11.3672 25.4779 11.3672 24.8464 11.3672 24.4297C11.3802 24.013 11.4062 23.4466 11.4453 22.7305C11.4974 22.0143 11.569 21.4805 11.6602 21.1289C11.7513 20.7643 11.888 20.3151 12.0703 19.7812C12.2526 19.2344 12.474 18.8307 12.7344 18.5703C13.0078 18.2969 13.3398 17.9909 13.7305 17.6523C14.1341 17.3138 14.5964 17.0664 15.1172 16.9102C15.651 16.7539 16.276 16.6237 16.9922 16.5195C17.7083 16.4023 18.5026 16.3438 19.375 16.3438V18.1016C18.8542 18.1016 18.3919 18.1146 17.9883 18.1406C17.5977 18.1536 17.2331 18.2188 16.8945 18.3359C16.569 18.4401 16.2891 18.5312 16.0547 18.6094C15.8203 18.6745 15.6055 18.8307 15.4102 19.0781C15.2148 19.3255 15.0586 19.5273 14.9414 19.6836C14.8242 19.8268 14.7201 20.1133 14.6289 20.543C14.5508 20.9596 14.4922 21.2982 14.4531 21.5586C14.4141 21.806 14.3815 22.2487 14.3555 22.8867C14.3294 23.5117 14.3164 24.0195 14.3164 24.4102C14.3164 24.7878 14.3164 25.3997 14.3164 26.2461C14.3164 26.2852 14.3164 26.3112 14.3164 26.3242C14.3164 28.2383 14.0951 29.7096 13.6523 30.7383C13.2227 31.7539 12.4089 32.4049 11.2109 32.6914C12.4089 32.9779 13.2227 33.6354 13.6523 34.6641C14.0951 35.6797 14.3164 37.1445 14.3164 39.0586C14.3164 41.832 14.3945 43.6289 14.5508 44.4492C14.7721 45.6081 15.2669 46.3828 16.0352 46.7734C16.7253 47.112 17.8385 47.2812 19.375 47.2812V49.0391C18.5026 49.0391 17.7083 48.9805 16.9922 48.8633C16.276 48.7591 15.651 48.6289 15.1172 48.4727C14.5964 48.3164 14.1341 48.069 13.7305 47.7305C13.3398 47.3919 13.0078 47.0859 12.7344 46.8125C12.474 46.5521 12.2526 46.1549 12.0703 45.6211C11.888 45.0742 11.7513 44.625 11.6602 44.2734C11.569 43.9089 11.4974 43.3685 11.4453 42.6523C11.4062 41.9362 11.3802 41.3698 11.3672 40.9531C11.3672 40.5365 11.3672 39.9049 11.3672 39.0586C11.3672 38.6549 11.3672 38.3685 11.3672 38.1992C11.3672 38.0299 11.3542 37.763 11.3281 37.3984C11.3151 37.0208 11.2891 36.7474 11.25 36.5781C11.224 36.3958 11.1719 36.1484 11.0938 35.8359C11.0286 35.5234 10.944 35.2891 10.8398 35.1328C10.7357 34.9766 10.599 34.7943 10.4297 34.5859C10.2734 34.3646 10.0911 34.2018 9.88281 34.0977C9.67448 33.9805 9.42708 33.8763 9.14062 33.7852C8.85417 33.694 8.53516 33.6354 8.18359 33.6094V31.7734ZM25.5664 50.3477H22.7148V17.1641H25.5664V50.3477ZM33.6914 50.3477H30.8398V17.1641H33.6914V50.3477ZM48.2227 31.793V33.6289C47.8711 33.6549 47.5521 33.7135 47.2656 33.8047C46.9792 33.8958 46.7318 34 46.5234 34.1172C46.3151 34.2214 46.1263 34.3841 45.957 34.6055C45.8008 34.8138 45.6706 34.9961 45.5664 35.1523C45.4622 35.3086 45.3711 35.543 45.293 35.8555C45.2279 36.168 45.1758 36.4154 45.1367 36.5977C45.1107 36.7669 45.0846 37.0404 45.0586 37.418C45.0456 37.7826 45.0391 38.0495 45.0391 38.2188C45.0391 38.388 45.0391 38.6745 45.0391 39.0781C45.0391 39.9245 45.0326 40.556 45.0195 40.9727C45.0195 41.3893 44.9935 41.9557 44.9414 42.6719C44.9023 43.388 44.8372 43.9284 44.7461 44.293C44.6549 44.6445 44.5182 45.0938 44.3359 45.6406C44.1536 46.1745 43.9258 46.5716 43.6523 46.832C43.3919 47.1055 43.0599 47.4115 42.6562 47.75C42.2656 48.0885 41.8034 48.3359 41.2695 48.4922C40.7487 48.6484 40.1302 48.7786 39.4141 48.8828C38.6979 49 37.9036 49.0586 37.0312 49.0586V47.3008C38.5677 47.3008 39.681 47.1315 40.3711 46.793C41.1393 46.4023 41.6341 45.6276 41.8555 44.4688C42.0117 43.6484 42.0898 41.8516 42.0898 39.0781C42.0898 37.1641 42.3047 35.6992 42.7344 34.6836C43.1771 33.6549 43.9974 32.9974 45.1953 32.7109C43.9974 32.4245 43.1771 31.7734 42.7344 30.7578C42.3047 29.7292 42.0898 28.2578 42.0898 26.3438C42.0898 26.3307 42.0898 26.3047 42.0898 26.2656C42.0898 25.4193 42.0898 24.8073 42.0898 24.4297C42.0898 24.0391 42.0768 23.5312 42.0508 22.9062C42.0247 22.2682 41.9922 21.8255 41.9531 21.5781C41.9141 21.3177 41.849 20.9792 41.7578 20.5625C41.6797 20.1328 41.582 19.8464 41.4648 19.7031C41.3477 19.5469 41.1914 19.3451 40.9961 19.0977C40.8008 18.8503 40.5859 18.694 40.3516 18.6289C40.1172 18.5508 39.8307 18.4596 39.4922 18.3555C39.1667 18.2383 38.8021 18.1732 38.3984 18.1602C38.0078 18.1341 37.5521 18.1211 37.0312 18.1211V16.3633C37.9036 16.3633 38.6979 16.4219 39.4141 16.5391C40.1302 16.6432 40.7487 16.7734 41.2695 16.9297C41.8034 17.0859 42.2656 17.3333 42.6562 17.6719C43.0599 18.0104 43.3919 18.3164 43.6523 18.5898C43.9258 18.8503 44.1536 19.2539 44.3359 19.8008C44.5182 20.3346 44.6549 20.7839 44.7461 21.1484C44.8372 21.5 44.9023 22.0339 44.9414 22.75C44.9935 23.4661 45.0195 24.0326 45.0195 24.4492C45.0326 24.8659 45.0391 25.4974 45.0391 26.3438C45.0391 26.7474 45.0391 27.0339 45.0391 27.2031C45.0391 27.3724 45.0456 27.6458 45.0586 28.0234C45.0846 28.388 45.1107 28.6615 45.1367 28.8438C45.1758 29.013 45.2279 29.2539 45.293 29.5664C45.3711 29.8789 45.4622 30.1133 45.5664 30.2695C45.6706 30.4258 45.8008 30.6146 45.957 30.8359C46.1263 31.0443 46.3151 31.207 46.5234 31.3242C46.7318 31.4284 46.9792 31.526 47.2656 31.6172C47.5521 31.7083 47.8711 31.7669 48.2227 31.793Z" fill="#B1454A"/>
<path d="M69.236 32.1862H61.94L60.596 35.9062H58.292L64.34 19.2742H66.86L72.884 35.9062H70.58L69.236 32.1862ZM68.612 30.4102L65.588 21.9622L62.564 30.4102H68.612ZM88.9359 39.0742L85.5999 35.7382C84.7839 35.9623 83.9519 36.0743 83.1039 36.0743C81.5519 36.0743 80.1359 35.7142 78.8559 34.9942C77.5759 34.2582 76.5599 33.2422 75.8079 31.9462C75.0719 30.6342 74.7039 29.1622 74.7039 27.5302C74.7039 25.8982 75.0719 24.4342 75.8079 23.1382C76.5599 21.8262 77.5759 20.8102 78.8559 20.0902C80.1359 19.3542 81.5519 18.9862 83.1039 18.9862C84.6719 18.9862 86.0959 19.3542 87.3759 20.0902C88.6559 20.8102 89.6639 21.8182 90.3999 23.1142C91.1359 24.4102 91.5039 25.8822 91.5039 27.5302C91.5039 29.1302 91.1519 30.5702 90.4479 31.8502C89.7439 33.1302 88.7759 34.1382 87.5439 34.8742L91.7679 39.0742H88.9359ZM76.9359 27.5302C76.9359 28.8582 77.1999 30.0262 77.7279 31.0342C78.2719 32.0422 79.0079 32.8182 79.9359 33.3622C80.8799 33.9062 81.9359 34.1782 83.1039 34.1782C84.2719 34.1782 85.3199 33.9062 86.2479 33.3622C87.1919 32.8182 87.9279 32.0422 88.4559 31.0342C88.9999 30.0262 89.2719 28.8582 89.2719 27.5302C89.2719 26.1862 88.9999 25.0182 88.4559 24.0262C87.9279 23.0182 87.1999 22.2422 86.2719 21.6982C85.3439 21.1542 84.2879 20.8822 83.1039 20.8822C81.9199 20.8822 80.8639 21.1542 79.9359 21.6982C79.0079 22.2422 78.2719 23.0182 77.7279 24.0262C77.1999 25.0182 76.9359 26.1862 76.9359 27.5302ZM103.554 26.1862V28.0342H93.9779V26.1862H103.554ZM112.861 19.1782C114.685 19.1782 116.261 19.5222 117.589 20.2102C118.933 20.8822 119.957 21.8502 120.661 23.1142C121.381 24.3782 121.741 25.8662 121.741 27.5782C121.741 29.2902 121.381 30.7782 120.661 32.0422C119.957 33.2902 118.933 34.2502 117.589 34.9222C116.261 35.5782 114.685 35.9062 112.861 35.9062H107.653V19.1782H112.861ZM112.861 34.1062C115.021 34.1062 116.669 33.5382 117.805 32.4022C118.941 31.2502 119.509 29.6422 119.509 27.5782C119.509 25.4982 118.933 23.8742 117.781 22.7062C116.645 21.5382 115.005 20.9542 112.861 20.9542H109.837V34.1062H112.861ZM126.805 20.9542V26.5462H132.901V28.3462H126.805V34.1062H133.621V35.9062H124.621V19.1542H133.621V20.9542H126.805ZM150.75 19.1782L144.438 35.9062H141.918L135.606 19.1782H137.934L143.19 33.6022L148.446 19.1782H150.75ZM155.329 20.9542V26.5462H161.425V28.3462H155.329V34.1062H162.145V35.9062H153.145V19.1542H162.145V20.9542H155.329ZM167.634 34.1302H173.49V35.9062H165.45V19.1782H167.634V34.1302ZM183.393 36.0743C181.841 36.0743 180.425 35.7142 179.145 34.9942C177.865 34.2582 176.849 33.2422 176.097 31.9462C175.361 30.6342 174.993 29.1622 174.993 27.5302C174.993 25.8982 175.361 24.4342 176.097 23.1382C176.849 21.8262 177.865 20.8102 179.145 20.0902C180.425 19.3542 181.841 18.9862 183.393 18.9862C184.961 18.9862 186.385 19.3542 187.665 20.0902C188.945 20.8102 189.953 21.8182 190.689 23.1142C191.425 24.4102 191.793 25.8822 191.793 27.5302C191.793 29.1782 191.425 30.6502 190.689 31.9462C189.953 33.2422 188.945 34.2582 187.665 34.9942C186.385 35.7142 184.961 36.0743 183.393 36.0743ZM183.393 34.1782C184.561 34.1782 185.609 33.9062 186.537 33.3622C187.481 32.8182 188.217 32.0422 188.745 31.0342C189.289 30.0262 189.561 28.8582 189.561 27.5302C189.561 26.1862 189.289 25.0182 188.745 24.0262C188.217 23.0182 187.489 22.2422 186.561 21.6982C185.633 21.1542 184.577 20.8822 183.393 20.8822C182.209 20.8822 181.153 21.1542 180.225 21.6982C179.297 22.2422 178.561 23.0182 178.017 24.0262C177.489 25.0182 177.225 26.1862 177.225 27.5302C177.225 28.8582 177.489 30.0262 178.017 31.0342C178.561 32.0422 179.297 32.8182 180.225 33.3622C181.169 33.9062 182.225 34.1782 183.393 34.1782ZM205.86 24.0742C205.86 25.4662 205.38 26.6262 204.42 27.5542C203.476 28.4662 202.028 28.9222 200.076 28.9222H196.86V35.9062H194.676V19.1782H200.076C201.964 19.1782 203.396 19.6342 204.372 20.5462C205.364 21.4582 205.86 22.6342 205.86 24.0742ZM200.076 27.1222C201.292 27.1222 202.188 26.8582 202.764 26.3302C203.34 25.8022 203.628 25.0502 203.628 24.0742C203.628 22.0102 202.444 20.9782 200.076 20.9782H196.86V27.1222H200.076ZM210.759 20.9542V26.5462H216.855V28.3462H210.759V34.1062H217.575V35.9062H208.575V19.1542H217.575V20.9542H210.759ZM229.687 35.9062L225.703 29.0662H223.063V35.9062H220.879V19.1782H226.279C227.543 19.1782 228.607 19.3942 229.471 19.8262C230.351 20.2582 231.007 20.8422 231.439 21.5782C231.871 22.3142 232.087 23.1542 232.087 24.0982C232.087 25.2502 231.751 26.2662 231.079 27.1462C230.423 28.0262 229.431 28.6102 228.103 28.8982L232.303 35.9062H229.687ZM223.063 27.3142H226.279C227.463 27.3142 228.351 27.0262 228.943 26.4502C229.535 25.8582 229.831 25.0742 229.831 24.0982C229.831 23.1062 229.535 22.3382 228.943 21.7943C228.367 21.2502 227.479 20.9782 226.279 20.9782H223.063V27.3142ZM240.785 36.0743C239.681 36.0743 238.689 35.8822 237.809 35.4982C236.945 35.0982 236.265 34.5542 235.769 33.8662C235.273 33.1622 235.017 32.3542 235.001 31.4422H237.329C237.409 32.2262 237.729 32.8902 238.289 33.4342C238.865 33.9622 239.697 34.2262 240.785 34.2262C241.825 34.2262 242.641 33.9702 243.233 33.4582C243.841 32.9302 244.145 32.2582 244.145 31.4422C244.145 30.8022 243.969 30.2822 243.617 29.8822C243.265 29.4822 242.825 29.1782 242.297 28.9702C241.769 28.7622 241.057 28.5382 240.161 28.2982C239.057 28.0102 238.169 27.7222 237.497 27.4342C236.841 27.1462 236.273 26.6982 235.793 26.0902C235.329 25.4662 235.097 24.6342 235.097 23.5942C235.097 22.6822 235.329 21.8742 235.793 21.1702C236.257 20.4662 236.905 19.9222 237.737 19.5382C238.585 19.1542 239.553 18.9622 240.641 18.9622C242.209 18.9622 243.489 19.3542 244.481 20.1382C245.489 20.9222 246.057 21.9622 246.185 23.2582H243.785C243.705 22.6182 243.369 22.0582 242.777 21.5782C242.185 21.0822 241.401 20.8342 240.425 20.8342C239.513 20.8342 238.769 21.0742 238.193 21.5542C237.617 22.0182 237.329 22.6742 237.329 23.5222C237.329 24.1302 237.497 24.6262 237.833 25.0102C238.185 25.3942 238.609 25.6902 239.105 25.8982C239.617 26.0902 240.329 26.3142 241.241 26.5702C242.345 26.8742 243.233 27.1782 243.905 27.4822C244.577 27.7702 245.153 28.2262 245.633 28.8503C246.113 29.4582 246.353 30.2902 246.353 31.3462C246.353 32.1622 246.137 32.9302 245.705 33.6502C245.273 34.3702 244.633 34.9542 243.785 35.4022C242.937 35.8502 241.937 36.0743 240.785 36.0743Z" fill="#B1454A"/>
<path d="M62.116 42.3357C63.18 42.3357 64.0993 42.5364 64.874 42.9377C65.658 43.3297 66.2553 43.8944 66.666 44.6317C67.086 45.3691 67.296 46.2371 67.296 47.2357C67.296 48.2344 67.086 49.1024 66.666 49.8397C66.2553 50.5677 65.658 51.1277 64.874 51.5197C64.0993 51.9024 63.18 52.0938 62.116 52.0938H59.078V42.3357H62.116ZM62.116 51.0437C63.376 51.0437 64.3373 50.7124 65 50.0497C65.6627 49.3777 65.994 48.4397 65.994 47.2357C65.994 46.0224 65.658 45.0751 64.986 44.3937C64.3233 43.7124 63.3667 43.3717 62.116 43.3717H60.352V51.0437H62.116ZM69.6344 43.1757C69.3918 43.1757 69.1864 43.0917 69.0184 42.9237C68.8504 42.7557 68.7664 42.5504 68.7664 42.3077C68.7664 42.0651 68.8504 41.8597 69.0184 41.6917C69.1864 41.5237 69.3918 41.4397 69.6344 41.4397C69.8678 41.4397 70.0638 41.5237 70.2224 41.6917C70.3904 41.8597 70.4744 42.0651 70.4744 42.3077C70.4744 42.5504 70.3904 42.7557 70.2224 42.9237C70.0638 43.0917 69.8678 43.1757 69.6344 43.1757ZM70.2504 44.4217V52.0938H68.9764V44.4217H70.2504ZM75.5858 44.2957C76.2484 44.2957 76.8271 44.4404 77.3218 44.7297C77.8258 45.0191 78.1991 45.3831 78.4418 45.8217V44.4217H79.7298V52.2618C79.7298 52.9618 79.5804 53.5824 79.2818 54.1238C78.9831 54.6744 78.5538 55.1038 77.9938 55.4118C77.4431 55.7198 76.7991 55.8738 76.0618 55.8738C75.0538 55.8738 74.2138 55.6358 73.5418 55.1598C72.8698 54.6838 72.4731 54.0351 72.3518 53.2138H73.6118C73.7518 53.6804 74.0411 54.0538 74.4798 54.3338C74.9184 54.6231 75.4458 54.7678 76.0618 54.7678C76.7618 54.7678 77.3311 54.5484 77.7698 54.1098C78.2178 53.6711 78.4418 53.0551 78.4418 52.2618V50.6517C78.1898 51.0997 77.8164 51.4731 77.3218 51.7717C76.8271 52.0704 76.2484 52.2198 75.5858 52.2198C74.9044 52.2198 74.2838 52.0518 73.7238 51.7157C73.1731 51.3797 72.7391 50.9084 72.4218 50.3017C72.1044 49.6951 71.9458 49.0044 71.9458 48.2297C71.9458 47.4457 72.1044 46.7597 72.4218 46.1717C72.7391 45.5744 73.1731 45.1124 73.7238 44.7857C74.2838 44.4591 74.9044 44.2957 75.5858 44.2957ZM78.4418 48.2437C78.4418 47.6651 78.3251 47.1611 78.0918 46.7317C77.8584 46.3024 77.5411 45.9757 77.1398 45.7517C76.7478 45.5184 76.3138 45.4017 75.8378 45.4017C75.3618 45.4017 74.9278 45.5137 74.5358 45.7377C74.1438 45.9617 73.8311 46.2884 73.5978 46.7177C73.3644 47.1471 73.2478 47.6511 73.2478 48.2297C73.2478 48.8177 73.3644 49.3311 73.5978 49.7697C73.8311 50.1991 74.1438 50.5304 74.5358 50.7637C74.9278 50.9877 75.3618 51.0997 75.8378 51.0997C76.3138 51.0997 76.7478 50.9877 77.1398 50.7637C77.5411 50.5304 77.8584 50.1991 78.0918 49.7697C78.3251 49.3311 78.4418 48.8224 78.4418 48.2437ZM82.5407 43.1757C82.298 43.1757 82.0927 43.0917 81.9247 42.9237C81.7567 42.7557 81.6727 42.5504 81.6727 42.3077C81.6727 42.0651 81.7567 41.8597 81.9247 41.6917C82.0927 41.5237 82.298 41.4397 82.5407 41.4397C82.774 41.4397 82.97 41.5237 83.1287 41.6917C83.2967 41.8597 83.3807 42.0651 83.3807 42.3077C83.3807 42.5504 83.2967 42.7557 83.1287 42.9237C82.97 43.0917 82.774 43.1757 82.5407 43.1757ZM83.1567 44.4217V52.0938H81.8827V44.4217H83.1567ZM86.882 45.4717V49.9937C86.882 50.3671 86.9613 50.6331 87.12 50.7917C87.2787 50.9411 87.554 51.0157 87.946 51.0157H88.884V52.0938H87.736C87.0267 52.0938 86.4947 51.9304 86.14 51.6037C85.7853 51.2771 85.608 50.7404 85.608 49.9937V45.4717H84.614V44.4217H85.608V42.4897H86.882V44.4217H88.884V45.4717H86.882ZM89.9516 48.2297C89.9516 47.4457 90.1103 46.7597 90.4276 46.1717C90.7449 45.5744 91.1789 45.1124 91.7296 44.7857C92.2896 44.4591 92.9103 44.2957 93.5916 44.2957C94.2636 44.2957 94.8469 44.4404 95.3416 44.7297C95.8363 45.0191 96.2049 45.3831 96.4476 45.8217V44.4217H97.7356V52.0938H96.4476V50.6657C96.1956 51.1137 95.8176 51.4871 95.3136 51.7857C94.8189 52.0751 94.2403 52.2198 93.5776 52.2198C92.8963 52.2198 92.2803 52.0518 91.7296 51.7157C91.1789 51.3797 90.7449 50.9084 90.4276 50.3017C90.1103 49.6951 89.9516 49.0044 89.9516 48.2297ZM96.4476 48.2437C96.4476 47.6651 96.3309 47.1611 96.0976 46.7317C95.8643 46.3024 95.5469 45.9757 95.1456 45.7517C94.7536 45.5184 94.3196 45.4017 93.8436 45.4017C93.3676 45.4017 92.9336 45.5137 92.5416 45.7377C92.1496 45.9617 91.8369 46.2884 91.6036 46.7177C91.3703 47.1471 91.2536 47.6511 91.2536 48.2297C91.2536 48.8177 91.3703 49.3311 91.6036 49.7697C91.8369 50.1991 92.1496 50.5304 92.5416 50.7637C92.9336 50.9877 93.3676 51.0997 93.8436 51.0997C94.3196 51.0997 94.7536 50.9877 95.1456 50.7637C95.5469 50.5304 95.8643 50.1991 96.0976 49.7697C96.3309 49.3311 96.4476 48.8224 96.4476 48.2437ZM101.163 41.7337V52.0938H99.8885V41.7337H101.163ZM106.59 47.2077C106.59 46.2557 106.805 45.4017 107.234 44.6457C107.664 43.8804 108.247 43.2831 108.984 42.8537C109.731 42.4244 110.557 42.2097 111.462 42.2097C112.526 42.2097 113.455 42.4664 114.248 42.9797C115.042 43.4931 115.62 44.2211 115.984 45.1637H114.458C114.188 44.5757 113.796 44.1231 113.282 43.8057C112.778 43.4884 112.172 43.3297 111.462 43.3297C110.781 43.3297 110.17 43.4884 109.628 43.8057C109.087 44.1231 108.662 44.5757 108.354 45.1637C108.046 45.7424 107.892 46.4237 107.892 47.2077C107.892 47.9824 108.046 48.6637 108.354 49.2517C108.662 49.8304 109.087 50.2784 109.628 50.5957C110.17 50.9131 110.781 51.0717 111.462 51.0717C112.172 51.0717 112.778 50.9177 113.282 50.6097C113.796 50.2924 114.188 49.8397 114.458 49.2517H115.984C115.62 50.1851 115.042 50.9084 114.248 51.4217C113.455 51.9257 112.526 52.1778 111.462 52.1778C110.557 52.1778 109.731 51.9677 108.984 51.5477C108.247 51.1184 107.664 50.5257 107.234 49.7697C106.805 49.0137 106.59 48.1597 106.59 47.2077ZM121.227 52.2198C120.508 52.2198 119.855 52.0564 119.267 51.7297C118.688 51.4031 118.231 50.9411 117.895 50.3438C117.568 49.7371 117.405 49.0371 117.405 48.2437C117.405 47.4597 117.573 46.7691 117.909 46.1717C118.254 45.5651 118.721 45.1031 119.309 44.7857C119.897 44.4591 120.555 44.2957 121.283 44.2957C122.011 44.2957 122.669 44.4591 123.257 44.7857C123.845 45.1031 124.307 45.5604 124.643 46.1577C124.988 46.7551 125.161 47.4504 125.161 48.2437C125.161 49.0371 124.983 49.7371 124.629 50.3438C124.283 50.9411 123.812 51.4031 123.215 51.7297C122.617 52.0564 121.955 52.2198 121.227 52.2198ZM121.227 51.0997C121.684 51.0997 122.113 50.9924 122.515 50.7777C122.916 50.5631 123.238 50.2411 123.481 49.8117C123.733 49.3824 123.859 48.8597 123.859 48.2437C123.859 47.6277 123.737 47.1051 123.495 46.6757C123.252 46.2464 122.935 45.9291 122.543 45.7237C122.151 45.5091 121.726 45.4017 121.269 45.4017C120.802 45.4017 120.373 45.5091 119.981 45.7237C119.598 45.9291 119.29 46.2464 119.057 46.6757C118.823 47.1051 118.707 47.6277 118.707 48.2437C118.707 48.8691 118.819 49.3964 119.043 49.8257C119.276 50.2551 119.584 50.5771 119.967 50.7917C120.349 50.9971 120.769 51.0997 121.227 51.0997ZM126.36 48.2297C126.36 47.4457 126.518 46.7597 126.836 46.1717C127.153 45.5744 127.587 45.1124 128.138 44.7857C128.698 44.4591 129.323 44.2957 130.014 44.2957C130.611 44.2957 131.166 44.4357 131.68 44.7157C132.193 44.9864 132.585 45.3457 132.856 45.7937V41.7337H134.144V52.0938H132.856V50.6517C132.604 51.1091 132.23 51.4871 131.736 51.7857C131.241 52.0751 130.662 52.2198 130 52.2198C129.318 52.2198 128.698 52.0518 128.138 51.7157C127.587 51.3797 127.153 50.9084 126.836 50.3017C126.518 49.6951 126.36 49.0044 126.36 48.2297ZM132.856 48.2437C132.856 47.6651 132.739 47.1611 132.506 46.7317C132.272 46.3024 131.955 45.9757 131.554 45.7517C131.162 45.5184 130.728 45.4017 130.252 45.4017C129.776 45.4017 129.342 45.5137 128.95 45.7377C128.558 45.9617 128.245 46.2884 128.012 46.7177C127.778 47.1471 127.662 47.6511 127.662 48.2297C127.662 48.8177 127.778 49.3311 128.012 49.7697C128.245 50.1991 128.558 50.5304 128.95 50.7637C129.342 50.9877 129.776 51.0997 130.252 51.0997C130.728 51.0997 131.162 50.9877 131.554 50.7637C131.955 50.5304 132.272 50.1991 132.506 49.7697C132.739 49.3311 132.856 48.8224 132.856 48.2437ZM136.955 43.1757C136.712 43.1757 136.507 43.0917 136.339 42.9237C136.171 42.7557 136.087 42.5504 136.087 42.3077C136.087 42.0651 136.171 41.8597 136.339 41.6917C136.507 41.5237 136.712 41.4397 136.955 41.4397C137.188 41.4397 137.384 41.5237 137.543 41.6917C137.711 41.8597 137.795 42.0651 137.795 42.3077C137.795 42.5504 137.711 42.7557 137.543 42.9237C137.384 43.0917 137.188 43.1757 136.955 43.1757ZM137.571 44.4217V52.0938H136.297V44.4217H137.571ZM143.48 44.2817C144.413 44.2817 145.169 44.5664 145.748 45.1357C146.327 45.6957 146.616 46.5077 146.616 47.5717V52.0938H145.356V47.7537C145.356 46.9884 145.165 46.4051 144.782 46.0037C144.399 45.5931 143.877 45.3877 143.214 45.3877C142.542 45.3877 142.005 45.5977 141.604 46.0177C141.212 46.4377 141.016 47.0491 141.016 47.8517V52.0938H139.742V44.4217H141.016V45.5137C141.268 45.1217 141.609 44.8184 142.038 44.6037C142.477 44.3891 142.957 44.2817 143.48 44.2817ZM151.861 44.2957C152.524 44.2957 153.102 44.4404 153.597 44.7297C154.101 45.0191 154.474 45.3831 154.717 45.8217V44.4217H156.005V52.2618C156.005 52.9618 155.856 53.5824 155.557 54.1238C155.258 54.6744 154.829 55.1038 154.269 55.4118C153.718 55.7198 153.074 55.8738 152.337 55.8738C151.329 55.8738 150.489 55.6358 149.817 55.1598C149.145 54.6838 148.748 54.0351 148.627 53.2138H149.887C150.027 53.6804 150.316 54.0538 150.755 54.3338C151.194 54.6231 151.721 54.7678 152.337 54.7678C153.037 54.7678 153.606 54.5484 154.045 54.1098C154.493 53.6711 154.717 53.0551 154.717 52.2618V50.6517C154.465 51.0997 154.092 51.4731 153.597 51.7717C153.102 52.0704 152.524 52.2198 151.861 52.2198C151.18 52.2198 150.559 52.0518 149.999 51.7157C149.448 51.3797 149.014 50.9084 148.697 50.3017C148.38 49.6951 148.221 49.0044 148.221 48.2297C148.221 47.4457 148.38 46.7597 148.697 46.1717C149.014 45.5744 149.448 45.1124 149.999 44.7857C150.559 44.4591 151.18 44.2957 151.861 44.2957ZM154.717 48.2437C154.717 47.6651 154.6 47.1611 154.367 46.7317C154.134 46.3024 153.816 45.9757 153.415 45.7517C153.023 45.5184 152.589 45.4017 152.113 45.4017C151.637 45.4017 151.203 45.5137 150.811 45.7377C150.419 45.9617 150.106 46.2884 149.873 46.7177C149.64 47.1471 149.523 47.6511 149.523 48.2297C149.523 48.8177 149.64 49.3311 149.873 49.7697C150.106 50.1991 150.419 50.5304 150.811 50.7637C151.203 50.9877 151.637 51.0997 152.113 51.0997C152.589 51.0997 153.023 50.9877 153.415 50.7637C153.816 50.5304 154.134 50.1991 154.367 49.7697C154.6 49.3311 154.717 48.8224 154.717 48.2437ZM164.985 52.1918C164.341 52.1918 163.762 52.0797 163.249 51.8557C162.745 51.6224 162.348 51.3051 162.059 50.9037C161.769 50.4931 161.62 50.0217 161.611 49.4897H162.969C163.015 49.9471 163.202 50.3344 163.529 50.6517C163.865 50.9597 164.35 51.1137 164.985 51.1137C165.591 51.1137 166.067 50.9644 166.413 50.6657C166.767 50.3577 166.945 49.9657 166.945 49.4897C166.945 49.1164 166.842 48.8131 166.637 48.5797C166.431 48.3464 166.175 48.1691 165.867 48.0477C165.559 47.9264 165.143 47.7957 164.621 47.6557C163.977 47.4877 163.459 47.3197 163.067 47.1517C162.684 46.9837 162.353 46.7224 162.073 46.3677C161.802 46.0037 161.667 45.5184 161.667 44.9117C161.667 44.3797 161.802 43.9084 162.073 43.4977C162.343 43.0871 162.721 42.7697 163.207 42.5457C163.701 42.3217 164.266 42.2097 164.901 42.2097C165.815 42.2097 166.562 42.4384 167.141 42.8957C167.729 43.3531 168.06 43.9597 168.135 44.7157H166.735C166.688 44.3424 166.492 44.0157 166.147 43.7357C165.801 43.4464 165.344 43.3017 164.775 43.3017C164.243 43.3017 163.809 43.4417 163.473 43.7217C163.137 43.9924 162.969 44.3751 162.969 44.8697C162.969 45.2244 163.067 45.5137 163.263 45.7377C163.468 45.9617 163.715 46.1344 164.005 46.2557C164.303 46.3677 164.719 46.4984 165.251 46.6477C165.895 46.8251 166.413 47.0024 166.805 47.1797C167.197 47.3477 167.533 47.6137 167.812 47.9778C168.093 48.3324 168.233 48.8177 168.233 49.4337C168.233 49.9097 168.107 50.3577 167.855 50.7777C167.603 51.1977 167.229 51.5384 166.735 51.7997C166.24 52.0611 165.657 52.1918 164.985 52.1918ZM173.453 52.2198C172.735 52.2198 172.081 52.0564 171.493 51.7297C170.915 51.4031 170.457 50.9411 170.121 50.3438C169.795 49.7371 169.631 49.0371 169.631 48.2437C169.631 47.4597 169.799 46.7691 170.135 46.1717C170.481 45.5651 170.947 45.1031 171.535 44.7857C172.123 44.4591 172.781 44.2957 173.509 44.2957C174.237 44.2957 174.895 44.4591 175.483 44.7857C176.071 45.1031 176.533 45.5604 176.869 46.1577C177.215 46.7551 177.387 47.4504 177.387 48.2437C177.387 49.0371 177.21 49.7371 176.855 50.3438C176.51 50.9411 176.039 51.4031 175.441 51.7297C174.844 52.0564 174.181 52.2198 173.453 52.2198ZM173.453 51.0997C173.911 51.0997 174.34 50.9924 174.741 50.7777C175.143 50.5631 175.465 50.2411 175.707 49.8117C175.959 49.3824 176.085 48.8597 176.085 48.2437C176.085 47.6277 175.964 47.1051 175.721 46.6757C175.479 46.2464 175.161 45.9291 174.769 45.7237C174.377 45.5091 173.953 45.4017 173.495 45.4017C173.029 45.4017 172.599 45.5091 172.207 45.7237C171.825 45.9291 171.517 46.2464 171.283 46.6757C171.05 47.1051 170.933 47.6277 170.933 48.2437C170.933 48.8691 171.045 49.3964 171.269 49.8257C171.503 50.2551 171.811 50.5771 172.193 50.7917C172.576 50.9971 172.996 51.0997 173.453 51.0997ZM180.336 41.7337V52.0938H179.062V41.7337H180.336ZM189.312 44.4217V52.0938H188.038V50.9597C187.795 51.3517 187.454 51.6597 187.016 51.8837C186.586 52.0984 186.11 52.2058 185.588 52.2058C184.99 52.2058 184.454 52.0844 183.978 51.8417C183.502 51.5897 183.124 51.2164 182.844 50.7217C182.573 50.2271 182.438 49.6251 182.438 48.9157V44.4217H183.698V48.7477C183.698 49.5037 183.889 50.0871 184.272 50.4977C184.654 50.8991 185.177 51.0997 185.84 51.0997C186.521 51.0997 187.058 50.8897 187.45 50.4697C187.842 50.0497 188.038 49.4384 188.038 48.6357V44.4217H189.312ZM193.017 45.4717V49.9937C193.017 50.3671 193.096 50.6331 193.255 50.7917C193.413 50.9411 193.689 51.0157 194.081 51.0157H195.019V52.0938H193.871C193.161 52.0938 192.629 51.9304 192.275 51.6037C191.92 51.2771 191.743 50.7404 191.743 49.9937V45.4717H190.749V44.4217H191.743V42.4897H193.017V44.4217H195.019V45.4717H193.017ZM197.22 43.1757C196.978 43.1757 196.772 43.0917 196.604 42.9237C196.436 42.7557 196.352 42.5504 196.352 42.3077C196.352 42.0651 196.436 41.8597 196.604 41.6917C196.772 41.5237 196.978 41.4397 197.22 41.4397C197.454 41.4397 197.65 41.5237 197.808 41.6917C197.976 41.8597 198.06 42.0651 198.06 42.3077C198.06 42.5504 197.976 42.7557 197.808 42.9237C197.65 43.0917 197.454 43.1757 197.22 43.1757ZM197.836 44.4217V52.0938H196.562V44.4217H197.836ZM203.354 52.2198C202.635 52.2198 201.982 52.0564 201.394 51.7297C200.815 51.4031 200.358 50.9411 200.022 50.3438C199.695 49.7371 199.532 49.0371 199.532 48.2437C199.532 47.4597 199.7 46.7691 200.036 46.1717C200.381 45.5651 200.848 45.1031 201.436 44.7857C202.024 44.4591 202.682 44.2957 203.41 44.2957C204.138 44.2957 204.796 44.4591 205.384 44.7857C205.972 45.1031 206.434 45.5604 206.77 46.1577C207.115 46.7551 207.288 47.4504 207.288 48.2437C207.288 49.0371 207.11 49.7371 206.756 50.3438C206.41 50.9411 205.939 51.4031 205.342 51.7297C204.744 52.0564 204.082 52.2198 203.354 52.2198ZM203.354 51.0997C203.811 51.0997 204.24 50.9924 204.642 50.7777C205.043 50.5631 205.365 50.2411 205.608 49.8117C205.86 49.3824 205.986 48.8597 205.986 48.2437C205.986 47.6277 205.864 47.1051 205.622 46.6757C205.379 46.2464 205.062 45.9291 204.67 45.7237C204.278 45.5091 203.853 45.4017 203.396 45.4017C202.929 45.4017 202.5 45.5091 202.108 45.7237C201.725 45.9291 201.417 46.2464 201.184 46.6757C200.95 47.1051 200.834 47.6277 200.834 48.2437C200.834 48.8691 200.946 49.3964 201.17 49.8257C201.403 50.2551 201.711 50.5771 202.094 50.7917C202.476 50.9971 202.896 51.0997 203.354 51.0997ZM212.701 44.2817C213.634 44.2817 214.39 44.5664 214.969 45.1357C215.547 45.6957 215.837 46.5077 215.837 47.5717V52.0938H214.577V47.7537C214.577 46.9884 214.385 46.4051 214.003 46.0037C213.62 45.5931 213.097 45.3877 212.435 45.3877C211.763 45.3877 211.226 45.5977 210.825 46.0177C210.433 46.4377 210.237 47.0491 210.237 47.8517V52.0938H208.963V44.4217H210.237V45.5137C210.489 45.1217 210.829 44.8184 211.259 44.6037C211.697 44.3891 212.178 44.2817 212.701 44.2817ZM220.634 52.2198C220.046 52.2198 219.519 52.1218 219.052 51.9257C218.585 51.7204 218.217 51.4404 217.946 51.0857C217.675 50.7217 217.526 50.3064 217.498 49.8397H218.814C218.851 50.2224 219.029 50.5351 219.346 50.7777C219.673 51.0204 220.097 51.1417 220.62 51.1417C221.105 51.1417 221.488 51.0344 221.768 50.8197C222.048 50.6051 222.188 50.3344 222.188 50.0077C222.188 49.6717 222.039 49.4244 221.74 49.2657C221.441 49.0977 220.979 48.9344 220.354 48.7757C219.785 48.6264 219.318 48.4771 218.954 48.3277C218.599 48.1691 218.291 47.9404 218.03 47.6417C217.778 47.3337 217.652 46.9324 217.652 46.4377C217.652 46.0457 217.769 45.6864 218.002 45.3597C218.235 45.0331 218.567 44.7764 218.996 44.5897C219.425 44.3937 219.915 44.2957 220.466 44.2957C221.315 44.2957 222.001 44.5104 222.524 44.9397C223.047 45.3691 223.327 45.9571 223.364 46.7037H222.09C222.062 46.3024 221.899 45.9804 221.6 45.7377C221.311 45.4951 220.919 45.3737 220.424 45.3737C219.967 45.3737 219.603 45.4717 219.332 45.6677C219.061 45.8637 218.926 46.1204 218.926 46.4377C218.926 46.6897 219.005 46.8997 219.164 47.0677C219.332 47.2264 219.537 47.3571 219.78 47.4597C220.032 47.5531 220.377 47.6604 220.816 47.7817C221.367 47.9311 221.815 48.0804 222.16 48.2297C222.505 48.3697 222.799 48.5844 223.042 48.8737C223.294 49.1631 223.425 49.5411 223.434 50.0077C223.434 50.4277 223.317 50.8057 223.084 51.1417C222.851 51.4777 222.519 51.7437 222.09 51.9397C221.67 52.1264 221.185 52.2198 220.634 52.2198Z" fill="#B1454A"/>
</svg>
