<svg width="262" height="74" viewBox="0 0 262 74" fill="none" xmlns="http://www.w3.org/2000/svg">
<rect x="1" y="1" width="260" height="72" rx="15" stroke="#B1454A"/>
<path d="M8.18359 36.2734C8.53516 36.2474 8.85417 36.1888 9.14062 36.0977C9.42708 36.0065 9.67448 35.9089 9.88281 35.8047C10.0911 35.6875 10.2734 35.5247 10.4297 35.3164C10.599 35.0951 10.7357 34.9062 10.8398 34.75C10.944 34.5938 11.0286 34.3594 11.0938 34.0469C11.1719 33.7344 11.224 33.4935 11.25 33.3242C11.2891 33.1419 11.3151 32.8685 11.3281 32.5039C11.3542 32.1263 11.3672 31.8529 11.3672 31.6836C11.3672 31.5143 11.3672 31.2279 11.3672 30.8242C11.3672 29.9779 11.3672 29.3464 11.3672 28.9297C11.3802 28.513 11.4062 27.9466 11.4453 27.2305C11.4974 26.5143 11.569 25.9805 11.6602 25.6289C11.7513 25.2643 11.888 24.8151 12.0703 24.2812C12.2526 23.7344 12.474 23.3307 12.7344 23.0703C13.0078 22.7969 13.3398 22.4909 13.7305 22.1523C14.1341 21.8138 14.5964 21.5664 15.1172 21.4102C15.651 21.2539 16.276 21.1237 16.9922 21.0195C17.7083 20.9023 18.5026 20.8438 19.375 20.8438V22.6016C18.8542 22.6016 18.3919 22.6146 17.9883 22.6406C17.5977 22.6536 17.2331 22.7188 16.8945 22.8359C16.569 22.9401 16.2891 23.0312 16.0547 23.1094C15.8203 23.1745 15.6055 23.3307 15.4102 23.5781C15.2148 23.8255 15.0586 24.0273 14.9414 24.1836C14.8242 24.3268 14.7201 24.6133 14.6289 25.043C14.5508 25.4596 14.4922 25.7982 14.4531 26.0586C14.4141 26.306 14.3815 26.7487 14.3555 27.3867C14.3294 28.0117 14.3164 28.5195 14.3164 28.9102C14.3164 29.2878 14.3164 29.8997 14.3164 30.7461C14.3164 30.7852 14.3164 30.8112 14.3164 30.8242C14.3164 32.7383 14.0951 34.2096 13.6523 35.2383C13.2227 36.2539 12.4089 36.9049 11.2109 37.1914C12.4089 37.4779 13.2227 38.1354 13.6523 39.1641C14.0951 40.1797 14.3164 41.6445 14.3164 43.5586C14.3164 46.332 14.3945 48.1289 14.5508 48.9492C14.7721 50.1081 15.2669 50.8828 16.0352 51.2734C16.7253 51.612 17.8385 51.7812 19.375 51.7812V53.5391C18.5026 53.5391 17.7083 53.4805 16.9922 53.3633C16.276 53.2591 15.651 53.1289 15.1172 52.9727C14.5964 52.8164 14.1341 52.569 13.7305 52.2305C13.3398 51.8919 13.0078 51.5859 12.7344 51.3125C12.474 51.0521 12.2526 50.6549 12.0703 50.1211C11.888 49.5742 11.7513 49.125 11.6602 48.7734C11.569 48.4089 11.4974 47.8685 11.4453 47.1523C11.4062 46.4362 11.3802 45.8698 11.3672 45.4531C11.3672 45.0365 11.3672 44.4049 11.3672 43.5586C11.3672 43.1549 11.3672 42.8685 11.3672 42.6992C11.3672 42.5299 11.3542 42.263 11.3281 41.8984C11.3151 41.5208 11.2891 41.2474 11.25 41.0781C11.224 40.8958 11.1719 40.6484 11.0938 40.3359C11.0286 40.0234 10.944 39.7891 10.8398 39.6328C10.7357 39.4766 10.599 39.2943 10.4297 39.0859C10.2734 38.8646 10.0911 38.7018 9.88281 38.5977C9.67448 38.4805 9.42708 38.3763 9.14062 38.2852C8.85417 38.194 8.53516 38.1354 8.18359 38.1094V36.2734ZM48.2227 36.293V38.1289C47.8711 38.1549 47.5521 38.2135 47.2656 38.3047C46.9792 38.3958 46.7318 38.5 46.5234 38.6172C46.3151 38.7214 46.1263 38.8841 45.957 39.1055C45.8008 39.3138 45.6706 39.4961 45.5664 39.6523C45.4622 39.8086 45.3711 40.043 45.293 40.3555C45.2279 40.668 45.1758 40.9154 45.1367 41.0977C45.1107 41.2669 45.0846 41.5404 45.0586 41.918C45.0456 42.2826 45.0391 42.5495 45.0391 42.7188C45.0391 42.888 45.0391 43.1745 45.0391 43.5781C45.0391 44.4245 45.0326 45.056 45.0195 45.4727C45.0195 45.8893 44.9935 46.4557 44.9414 47.1719C44.9023 47.888 44.8372 48.4284 44.7461 48.793C44.6549 49.1445 44.5182 49.5938 44.3359 50.1406C44.1536 50.6745 43.9258 51.0716 43.6523 51.332C43.3919 51.6055 43.0599 51.9115 42.6562 52.25C42.2656 52.5885 41.8034 52.8359 41.2695 52.9922C40.7487 53.1484 40.1302 53.2786 39.4141 53.3828C38.6979 53.5 37.9036 53.5586 37.0312 53.5586V51.8008C38.5677 51.8008 39.681 51.6315 40.3711 51.293C41.1393 50.9023 41.6341 50.1276 41.8555 48.9688C42.0117 48.1484 42.0898 46.3516 42.0898 43.5781C42.0898 41.6641 42.3047 40.1992 42.7344 39.1836C43.1771 38.1549 43.9974 37.4974 45.1953 37.2109C43.9974 36.9245 43.1771 36.2734 42.7344 35.2578C42.3047 34.2292 42.0898 32.7578 42.0898 30.8438C42.0898 30.8307 42.0898 30.8047 42.0898 30.7656C42.0898 29.9193 42.0898 29.3073 42.0898 28.9297C42.0898 28.5391 42.0768 28.0312 42.0508 27.4062C42.0247 26.7682 41.9922 26.3255 41.9531 26.0781C41.9141 25.8177 41.849 25.4792 41.7578 25.0625C41.6797 24.6328 41.582 24.3464 41.4648 24.2031C41.3477 24.0469 41.1914 23.8451 40.9961 23.5977C40.8008 23.3503 40.5859 23.194 40.3516 23.1289C40.1172 23.0508 39.8307 22.9596 39.4922 22.8555C39.1667 22.7383 38.8021 22.6732 38.3984 22.6602C38.0078 22.6341 37.5521 22.6211 37.0312 22.6211V20.8633C37.9036 20.8633 38.6979 20.9219 39.4141 21.0391C40.1302 21.1432 40.7487 21.2734 41.2695 21.4297C41.8034 21.5859 42.2656 21.8333 42.6562 22.1719C43.0599 22.5104 43.3919 22.8164 43.6523 23.0898C43.9258 23.3503 44.1536 23.7539 44.3359 24.3008C44.5182 24.8346 44.6549 25.2839 44.7461 25.6484C44.8372 26 44.9023 26.5339 44.9414 27.25C44.9935 27.9661 45.0195 28.5326 45.0195 28.9492C45.0326 29.3659 45.0391 29.9974 45.0391 30.8438C45.0391 31.2474 45.0391 31.5339 45.0391 31.7031C45.0391 31.8724 45.0456 32.1458 45.0586 32.5234C45.0846 32.888 45.1107 33.1615 45.1367 33.3438C45.1758 33.513 45.2279 33.7539 45.293 34.0664C45.3711 34.3789 45.4622 34.6133 45.5664 34.7695C45.6706 34.9258 45.8008 35.1146 45.957 35.3359C46.1263 35.5443 46.3151 35.707 46.5234 35.8242C46.7318 35.9284 46.9792 36.026 47.2656 36.1172C47.5521 36.2083 47.8711 36.2669 48.2227 36.293Z" fill="white"/>
<path d="M25.5664 54.8477H22.7148V21.6641H25.5664V54.8477ZM33.6914 54.8477H30.8398V21.6641H33.6914V54.8477Z" fill="#B1454A"/>
<path d="M69.236 36.6862H61.94L60.596 40.4062H58.292L64.34 23.7742H66.86L72.884 40.4062H70.58L69.236 36.6862ZM68.612 34.9102L65.588 26.4622L62.564 34.9102H68.612ZM88.9359 43.5742L85.5999 40.2382C84.7839 40.4623 83.9519 40.5743 83.1039 40.5743C81.5519 40.5743 80.1359 40.2142 78.8559 39.4942C77.5759 38.7582 76.5599 37.7422 75.8079 36.4462C75.0719 35.1342 74.7039 33.6622 74.7039 32.0302C74.7039 30.3982 75.0719 28.9342 75.8079 27.6382C76.5599 26.3262 77.5759 25.3102 78.8559 24.5902C80.1359 23.8542 81.5519 23.4862 83.1039 23.4862C84.6719 23.4862 86.0959 23.8542 87.3759 24.5902C88.6559 25.3102 89.6639 26.3182 90.3999 27.6142C91.1359 28.9102 91.5039 30.3822 91.5039 32.0302C91.5039 33.6302 91.1519 35.0702 90.4479 36.3502C89.7439 37.6302 88.7759 38.6382 87.5439 39.3742L91.7679 43.5742H88.9359ZM76.9359 32.0302C76.9359 33.3582 77.1999 34.5262 77.7279 35.5342C78.2719 36.5422 79.0079 37.3182 79.9359 37.8622C80.8799 38.4062 81.9359 38.6782 83.1039 38.6782C84.2719 38.6782 85.3199 38.4062 86.2479 37.8622C87.1919 37.3182 87.9279 36.5422 88.4559 35.5342C88.9999 34.5262 89.2719 33.3582 89.2719 32.0302C89.2719 30.6862 88.9999 29.5182 88.4559 28.5262C87.9279 27.5182 87.1999 26.7422 86.2719 26.1982C85.3439 25.6542 84.2879 25.3822 83.1039 25.3822C81.9199 25.3822 80.8639 25.6542 79.9359 26.1982C79.0079 26.7422 78.2719 27.5182 77.7279 28.5262C77.1999 29.5182 76.9359 30.6862 76.9359 32.0302ZM103.554 30.6862V32.5342H93.9779V30.6862H103.554ZM112.861 23.6782C114.685 23.6782 116.261 24.0222 117.589 24.7102C118.933 25.3822 119.957 26.3502 120.661 27.6142C121.381 28.8782 121.741 30.3662 121.741 32.0782C121.741 33.7902 121.381 35.2782 120.661 36.5422C119.957 37.7902 118.933 38.7502 117.589 39.4222C116.261 40.0782 114.685 40.4062 112.861 40.4062H107.653V23.6782H112.861ZM112.861 38.6062C115.021 38.6062 116.669 38.0382 117.805 36.9022C118.941 35.7502 119.509 34.1422 119.509 32.0782C119.509 29.9982 118.933 28.3742 117.781 27.2062C116.645 26.0382 115.005 25.4542 112.861 25.4542H109.837V38.6062H112.861ZM126.805 25.4542V31.0462H132.901V32.8462H126.805V38.6062H133.621V40.4062H124.621V23.6542H133.621V25.4542H126.805ZM150.75 23.6782L144.438 40.4062H141.918L135.606 23.6782H137.934L143.19 38.1022L148.446 23.6782H150.75ZM155.329 25.4542V31.0462H161.425V32.8462H155.329V38.6062H162.145V40.4062H153.145V23.6542H162.145V25.4542H155.329ZM167.634 38.6302H173.49V40.4062H165.45V23.6782H167.634V38.6302ZM183.393 40.5743C181.841 40.5743 180.425 40.2142 179.145 39.4942C177.865 38.7582 176.849 37.7422 176.097 36.4462C175.361 35.1342 174.993 33.6622 174.993 32.0302C174.993 30.3982 175.361 28.9342 176.097 27.6382C176.849 26.3262 177.865 25.3102 179.145 24.5902C180.425 23.8542 181.841 23.4862 183.393 23.4862C184.961 23.4862 186.385 23.8542 187.665 24.5902C188.945 25.3102 189.953 26.3182 190.689 27.6142C191.425 28.9102 191.793 30.3822 191.793 32.0302C191.793 33.6782 191.425 35.1502 190.689 36.4462C189.953 37.7422 188.945 38.7582 187.665 39.4942C186.385 40.2142 184.961 40.5743 183.393 40.5743ZM183.393 38.6782C184.561 38.6782 185.609 38.4062 186.537 37.8622C187.481 37.3182 188.217 36.5422 188.745 35.5342C189.289 34.5262 189.561 33.3582 189.561 32.0302C189.561 30.6862 189.289 29.5182 188.745 28.5262C188.217 27.5182 187.489 26.7422 186.561 26.1982C185.633 25.6542 184.577 25.3822 183.393 25.3822C182.209 25.3822 181.153 25.6542 180.225 26.1982C179.297 26.7422 178.561 27.5182 178.017 28.5262C177.489 29.5182 177.225 30.6862 177.225 32.0302C177.225 33.3582 177.489 34.5262 178.017 35.5342C178.561 36.5422 179.297 37.3182 180.225 37.8622C181.169 38.4062 182.225 38.6782 183.393 38.6782ZM205.86 28.5742C205.86 29.9662 205.38 31.1262 204.42 32.0542C203.476 32.9662 202.028 33.4222 200.076 33.4222H196.86V40.4062H194.676V23.6782H200.076C201.964 23.6782 203.396 24.1342 204.372 25.0462C205.364 25.9582 205.86 27.1342 205.86 28.5742ZM200.076 31.6222C201.292 31.6222 202.188 31.3582 202.764 30.8302C203.34 30.3022 203.628 29.5502 203.628 28.5742C203.628 26.5102 202.444 25.4782 200.076 25.4782H196.86V31.6222H200.076ZM210.759 25.4542V31.0462H216.855V32.8462H210.759V38.6062H217.575V40.4062H208.575V23.6542H217.575V25.4542H210.759ZM229.687 40.4062L225.703 33.5662H223.063V40.4062H220.879V23.6782H226.279C227.543 23.6782 228.607 23.8942 229.471 24.3262C230.351 24.7582 231.007 25.3422 231.439 26.0782C231.871 26.8142 232.087 27.6542 232.087 28.5982C232.087 29.7502 231.751 30.7662 231.079 31.6462C230.423 32.5262 229.431 33.1102 228.103 33.3982L232.303 40.4062H229.687ZM223.063 31.8142H226.279C227.463 31.8142 228.351 31.5262 228.943 30.9502C229.535 30.3582 229.831 29.5742 229.831 28.5982C229.831 27.6062 229.535 26.8382 228.943 26.2943C228.367 25.7502 227.479 25.4782 226.279 25.4782H223.063V31.8142ZM240.785 40.5743C239.681 40.5743 238.689 40.3822 237.809 39.9982C236.945 39.5982 236.265 39.0542 235.769 38.3662C235.273 37.6622 235.017 36.8542 235.001 35.9422H237.329C237.409 36.7262 237.729 37.3902 238.289 37.9342C238.865 38.4622 239.697 38.7262 240.785 38.7262C241.825 38.7262 242.641 38.4702 243.233 37.9582C243.841 37.4302 244.145 36.7582 244.145 35.9422C244.145 35.3022 243.969 34.7822 243.617 34.3822C243.265 33.9822 242.825 33.6782 242.297 33.4702C241.769 33.2622 241.057 33.0382 240.161 32.7982C239.057 32.5102 238.169 32.2222 237.497 31.9342C236.841 31.6462 236.273 31.1982 235.793 30.5902C235.329 29.9662 235.097 29.1342 235.097 28.0942C235.097 27.1822 235.329 26.3742 235.793 25.6702C236.257 24.9662 236.905 24.4222 237.737 24.0382C238.585 23.6542 239.553 23.4622 240.641 23.4622C242.209 23.4622 243.489 23.8542 244.481 24.6382C245.489 25.4222 246.057 26.4622 246.185 27.7582H243.785C243.705 27.1182 243.369 26.5582 242.777 26.0782C242.185 25.5822 241.401 25.3342 240.425 25.3342C239.513 25.3342 238.769 25.5742 238.193 26.0542C237.617 26.5182 237.329 27.1742 237.329 28.0222C237.329 28.6302 237.497 29.1262 237.833 29.5102C238.185 29.8942 238.609 30.1902 239.105 30.3982C239.617 30.5902 240.329 30.8142 241.241 31.0702C242.345 31.3742 243.233 31.6782 243.905 31.9822C244.577 32.2702 245.153 32.7262 245.633 33.3503C246.113 33.9582 246.353 34.7902 246.353 35.8462C246.353 36.6622 246.137 37.4302 245.705 38.1502C245.273 38.8702 244.633 39.4542 243.785 39.9022C242.937 40.3502 241.937 40.5743 240.785 40.5743Z" fill="white"/>
<path d="M62.116 46.8357C63.18 46.8357 64.0993 47.0364 64.874 47.4377C65.658 47.8297 66.2553 48.3944 66.666 49.1317C67.086 49.8691 67.296 50.7371 67.296 51.7357C67.296 52.7344 67.086 53.6024 66.666 54.3397C66.2553 55.0677 65.658 55.6277 64.874 56.0197C64.0993 56.4024 63.18 56.5938 62.116 56.5938H59.078V46.8357H62.116ZM62.116 55.5437C63.376 55.5437 64.3373 55.2124 65 54.5497C65.6627 53.8777 65.994 52.9397 65.994 51.7357C65.994 50.5224 65.658 49.5751 64.986 48.8937C64.3233 48.2124 63.3667 47.8717 62.116 47.8717H60.352V55.5437H62.116ZM69.6344 47.6757C69.3918 47.6757 69.1864 47.5917 69.0184 47.4237C68.8504 47.2557 68.7664 47.0504 68.7664 46.8077C68.7664 46.5651 68.8504 46.3597 69.0184 46.1917C69.1864 46.0237 69.3918 45.9397 69.6344 45.9397C69.8678 45.9397 70.0638 46.0237 70.2224 46.1917C70.3904 46.3597 70.4744 46.5651 70.4744 46.8077C70.4744 47.0504 70.3904 47.2557 70.2224 47.4237C70.0638 47.5917 69.8678 47.6757 69.6344 47.6757ZM70.2504 48.9217V56.5938H68.9764V48.9217H70.2504ZM75.5858 48.7957C76.2484 48.7957 76.8271 48.9404 77.3218 49.2297C77.8258 49.5191 78.1991 49.8831 78.4418 50.3217V48.9217H79.7298V56.7618C79.7298 57.4618 79.5804 58.0824 79.2818 58.6238C78.9831 59.1744 78.5538 59.6038 77.9938 59.9118C77.4431 60.2198 76.7991 60.3738 76.0618 60.3738C75.0538 60.3738 74.2138 60.1358 73.5418 59.6598C72.8698 59.1838 72.4731 58.5351 72.3518 57.7138H73.6118C73.7518 58.1804 74.0411 58.5538 74.4798 58.8338C74.9184 59.1231 75.4458 59.2678 76.0618 59.2678C76.7618 59.2678 77.3311 59.0484 77.7698 58.6098C78.2178 58.1711 78.4418 57.5551 78.4418 56.7618V55.1517C78.1898 55.5997 77.8164 55.9731 77.3218 56.2717C76.8271 56.5704 76.2484 56.7198 75.5858 56.7198C74.9044 56.7198 74.2838 56.5518 73.7238 56.2157C73.1731 55.8797 72.7391 55.4084 72.4218 54.8017C72.1044 54.1951 71.9458 53.5044 71.9458 52.7297C71.9458 51.9457 72.1044 51.2597 72.4218 50.6717C72.7391 50.0744 73.1731 49.6124 73.7238 49.2857C74.2838 48.9591 74.9044 48.7957 75.5858 48.7957ZM78.4418 52.7437C78.4418 52.1651 78.3251 51.6611 78.0918 51.2317C77.8584 50.8024 77.5411 50.4757 77.1398 50.2517C76.7478 50.0184 76.3138 49.9017 75.8378 49.9017C75.3618 49.9017 74.9278 50.0137 74.5358 50.2377C74.1438 50.4617 73.8311 50.7884 73.5978 51.2177C73.3644 51.6471 73.2478 52.1511 73.2478 52.7297C73.2478 53.3177 73.3644 53.8311 73.5978 54.2697C73.8311 54.6991 74.1438 55.0304 74.5358 55.2637C74.9278 55.4877 75.3618 55.5997 75.8378 55.5997C76.3138 55.5997 76.7478 55.4877 77.1398 55.2637C77.5411 55.0304 77.8584 54.6991 78.0918 54.2697C78.3251 53.8311 78.4418 53.3224 78.4418 52.7437ZM82.5407 47.6757C82.298 47.6757 82.0927 47.5917 81.9247 47.4237C81.7567 47.2557 81.6727 47.0504 81.6727 46.8077C81.6727 46.5651 81.7567 46.3597 81.9247 46.1917C82.0927 46.0237 82.298 45.9397 82.5407 45.9397C82.774 45.9397 82.97 46.0237 83.1287 46.1917C83.2967 46.3597 83.3807 46.5651 83.3807 46.8077C83.3807 47.0504 83.2967 47.2557 83.1287 47.4237C82.97 47.5917 82.774 47.6757 82.5407 47.6757ZM83.1567 48.9217V56.5938H81.8827V48.9217H83.1567ZM86.882 49.9717V54.4937C86.882 54.8671 86.9613 55.1331 87.12 55.2917C87.2787 55.4411 87.554 55.5157 87.946 55.5157H88.884V56.5938H87.736C87.0267 56.5938 86.4947 56.4304 86.14 56.1037C85.7853 55.7771 85.608 55.2404 85.608 54.4937V49.9717H84.614V48.9217H85.608V46.9897H86.882V48.9217H88.884V49.9717H86.882ZM89.9516 52.7297C89.9516 51.9457 90.1103 51.2597 90.4276 50.6717C90.7449 50.0744 91.1789 49.6124 91.7296 49.2857C92.2896 48.9591 92.9103 48.7957 93.5916 48.7957C94.2636 48.7957 94.8469 48.9404 95.3416 49.2297C95.8363 49.5191 96.2049 49.8831 96.4476 50.3217V48.9217H97.7356V56.5938H96.4476V55.1657C96.1956 55.6137 95.8176 55.9871 95.3136 56.2857C94.8189 56.5751 94.2403 56.7198 93.5776 56.7198C92.8963 56.7198 92.2803 56.5518 91.7296 56.2157C91.1789 55.8797 90.7449 55.4084 90.4276 54.8017C90.1103 54.1951 89.9516 53.5044 89.9516 52.7297ZM96.4476 52.7437C96.4476 52.1651 96.3309 51.6611 96.0976 51.2317C95.8643 50.8024 95.5469 50.4757 95.1456 50.2517C94.7536 50.0184 94.3196 49.9017 93.8436 49.9017C93.3676 49.9017 92.9336 50.0137 92.5416 50.2377C92.1496 50.4617 91.8369 50.7884 91.6036 51.2177C91.3703 51.6471 91.2536 52.1511 91.2536 52.7297C91.2536 53.3177 91.3703 53.8311 91.6036 54.2697C91.8369 54.6991 92.1496 55.0304 92.5416 55.2637C92.9336 55.4877 93.3676 55.5997 93.8436 55.5997C94.3196 55.5997 94.7536 55.4877 95.1456 55.2637C95.5469 55.0304 95.8643 54.6991 96.0976 54.2697C96.3309 53.8311 96.4476 53.3224 96.4476 52.7437ZM101.163 46.2337V56.5938H99.8885V46.2337H101.163ZM106.59 51.7077C106.59 50.7557 106.805 49.9017 107.234 49.1457C107.664 48.3804 108.247 47.7831 108.984 47.3537C109.731 46.9244 110.557 46.7097 111.462 46.7097C112.526 46.7097 113.455 46.9664 114.248 47.4797C115.042 47.9931 115.62 48.7211 115.984 49.6637H114.458C114.188 49.0757 113.796 48.6231 113.282 48.3057C112.778 47.9884 112.172 47.8297 111.462 47.8297C110.781 47.8297 110.17 47.9884 109.628 48.3057C109.087 48.6231 108.662 49.0757 108.354 49.6637C108.046 50.2424 107.892 50.9237 107.892 51.7077C107.892 52.4824 108.046 53.1637 108.354 53.7517C108.662 54.3304 109.087 54.7784 109.628 55.0957C110.17 55.4131 110.781 55.5717 111.462 55.5717C112.172 55.5717 112.778 55.4177 113.282 55.1097C113.796 54.7924 114.188 54.3397 114.458 53.7517H115.984C115.62 54.6851 115.042 55.4084 114.248 55.9217C113.455 56.4257 112.526 56.6778 111.462 56.6778C110.557 56.6778 109.731 56.4677 108.984 56.0477C108.247 55.6184 107.664 55.0257 107.234 54.2697C106.805 53.5137 106.59 52.6597 106.59 51.7077ZM121.227 56.7198C120.508 56.7198 119.855 56.5564 119.267 56.2297C118.688 55.9031 118.231 55.4411 117.895 54.8438C117.568 54.2371 117.405 53.5371 117.405 52.7437C117.405 51.9597 117.573 51.2691 117.909 50.6717C118.254 50.0651 118.721 49.6031 119.309 49.2857C119.897 48.9591 120.555 48.7957 121.283 48.7957C122.011 48.7957 122.669 48.9591 123.257 49.2857C123.845 49.6031 124.307 50.0604 124.643 50.6577C124.988 51.2551 125.161 51.9504 125.161 52.7437C125.161 53.5371 124.983 54.2371 124.629 54.8438C124.283 55.4411 123.812 55.9031 123.215 56.2297C122.617 56.5564 121.955 56.7198 121.227 56.7198ZM121.227 55.5997C121.684 55.5997 122.113 55.4924 122.515 55.2777C122.916 55.0631 123.238 54.7411 123.481 54.3117C123.733 53.8824 123.859 53.3597 123.859 52.7437C123.859 52.1277 123.737 51.6051 123.495 51.1757C123.252 50.7464 122.935 50.4291 122.543 50.2237C122.151 50.0091 121.726 49.9017 121.269 49.9017C120.802 49.9017 120.373 50.0091 119.981 50.2237C119.598 50.4291 119.29 50.7464 119.057 51.1757C118.823 51.6051 118.707 52.1277 118.707 52.7437C118.707 53.3691 118.819 53.8964 119.043 54.3257C119.276 54.7551 119.584 55.0771 119.967 55.2917C120.349 55.4971 120.769 55.5997 121.227 55.5997ZM126.36 52.7297C126.36 51.9457 126.518 51.2597 126.836 50.6717C127.153 50.0744 127.587 49.6124 128.138 49.2857C128.698 48.9591 129.323 48.7957 130.014 48.7957C130.611 48.7957 131.166 48.9357 131.68 49.2157C132.193 49.4864 132.585 49.8457 132.856 50.2937V46.2337H134.144V56.5938H132.856V55.1517C132.604 55.6091 132.23 55.9871 131.736 56.2857C131.241 56.5751 130.662 56.7198 130 56.7198C129.318 56.7198 128.698 56.5518 128.138 56.2157C127.587 55.8797 127.153 55.4084 126.836 54.8017C126.518 54.1951 126.36 53.5044 126.36 52.7297ZM132.856 52.7437C132.856 52.1651 132.739 51.6611 132.506 51.2317C132.272 50.8024 131.955 50.4757 131.554 50.2517C131.162 50.0184 130.728 49.9017 130.252 49.9017C129.776 49.9017 129.342 50.0137 128.95 50.2377C128.558 50.4617 128.245 50.7884 128.012 51.2177C127.778 51.6471 127.662 52.1511 127.662 52.7297C127.662 53.3177 127.778 53.8311 128.012 54.2697C128.245 54.6991 128.558 55.0304 128.95 55.2637C129.342 55.4877 129.776 55.5997 130.252 55.5997C130.728 55.5997 131.162 55.4877 131.554 55.2637C131.955 55.0304 132.272 54.6991 132.506 54.2697C132.739 53.8311 132.856 53.3224 132.856 52.7437ZM136.955 47.6757C136.712 47.6757 136.507 47.5917 136.339 47.4237C136.171 47.2557 136.087 47.0504 136.087 46.8077C136.087 46.5651 136.171 46.3597 136.339 46.1917C136.507 46.0237 136.712 45.9397 136.955 45.9397C137.188 45.9397 137.384 46.0237 137.543 46.1917C137.711 46.3597 137.795 46.5651 137.795 46.8077C137.795 47.0504 137.711 47.2557 137.543 47.4237C137.384 47.5917 137.188 47.6757 136.955 47.6757ZM137.571 48.9217V56.5938H136.297V48.9217H137.571ZM143.48 48.7817C144.413 48.7817 145.169 49.0664 145.748 49.6357C146.327 50.1957 146.616 51.0077 146.616 52.0717V56.5938H145.356V52.2537C145.356 51.4884 145.165 50.9051 144.782 50.5037C144.399 50.0931 143.877 49.8877 143.214 49.8877C142.542 49.8877 142.005 50.0977 141.604 50.5177C141.212 50.9377 141.016 51.5491 141.016 52.3517V56.5938H139.742V48.9217H141.016V50.0137C141.268 49.6217 141.609 49.3184 142.038 49.1037C142.477 48.8891 142.957 48.7817 143.48 48.7817ZM151.861 48.7957C152.524 48.7957 153.102 48.9404 153.597 49.2297C154.101 49.5191 154.474 49.8831 154.717 50.3217V48.9217H156.005V56.7618C156.005 57.4618 155.856 58.0824 155.557 58.6238C155.258 59.1744 154.829 59.6038 154.269 59.9118C153.718 60.2198 153.074 60.3738 152.337 60.3738C151.329 60.3738 150.489 60.1358 149.817 59.6598C149.145 59.1838 148.748 58.5351 148.627 57.7138H149.887C150.027 58.1804 150.316 58.5538 150.755 58.8338C151.194 59.1231 151.721 59.2678 152.337 59.2678C153.037 59.2678 153.606 59.0484 154.045 58.6098C154.493 58.1711 154.717 57.5551 154.717 56.7618V55.1517C154.465 55.5997 154.092 55.9731 153.597 56.2717C153.102 56.5704 152.524 56.7198 151.861 56.7198C151.18 56.7198 150.559 56.5518 149.999 56.2157C149.448 55.8797 149.014 55.4084 148.697 54.8017C148.38 54.1951 148.221 53.5044 148.221 52.7297C148.221 51.9457 148.38 51.2597 148.697 50.6717C149.014 50.0744 149.448 49.6124 149.999 49.2857C150.559 48.9591 151.18 48.7957 151.861 48.7957ZM154.717 52.7437C154.717 52.1651 154.6 51.6611 154.367 51.2317C154.134 50.8024 153.816 50.4757 153.415 50.2517C153.023 50.0184 152.589 49.9017 152.113 49.9017C151.637 49.9017 151.203 50.0137 150.811 50.2377C150.419 50.4617 150.106 50.7884 149.873 51.2177C149.64 51.6471 149.523 52.1511 149.523 52.7297C149.523 53.3177 149.64 53.8311 149.873 54.2697C150.106 54.6991 150.419 55.0304 150.811 55.2637C151.203 55.4877 151.637 55.5997 152.113 55.5997C152.589 55.5997 153.023 55.4877 153.415 55.2637C153.816 55.0304 154.134 54.6991 154.367 54.2697C154.6 53.8311 154.717 53.3224 154.717 52.7437ZM164.985 56.6918C164.341 56.6918 163.762 56.5797 163.249 56.3557C162.745 56.1224 162.348 55.8051 162.059 55.4037C161.769 54.9931 161.62 54.5217 161.611 53.9897H162.969C163.015 54.4471 163.202 54.8344 163.529 55.1517C163.865 55.4597 164.35 55.6137 164.985 55.6137C165.591 55.6137 166.067 55.4644 166.413 55.1657C166.767 54.8577 166.945 54.4657 166.945 53.9897C166.945 53.6164 166.842 53.3131 166.637 53.0797C166.431 52.8464 166.175 52.6691 165.867 52.5477C165.559 52.4264 165.143 52.2957 164.621 52.1557C163.977 51.9877 163.459 51.8197 163.067 51.6517C162.684 51.4837 162.353 51.2224 162.073 50.8677C161.802 50.5037 161.667 50.0184 161.667 49.4117C161.667 48.8797 161.802 48.4084 162.073 47.9977C162.343 47.5871 162.721 47.2697 163.207 47.0457C163.701 46.8217 164.266 46.7097 164.901 46.7097C165.815 46.7097 166.562 46.9384 167.141 47.3957C167.729 47.8531 168.06 48.4597 168.135 49.2157H166.735C166.688 48.8424 166.492 48.5157 166.147 48.2357C165.801 47.9464 165.344 47.8017 164.775 47.8017C164.243 47.8017 163.809 47.9417 163.473 48.2217C163.137 48.4924 162.969 48.8751 162.969 49.3697C162.969 49.7244 163.067 50.0137 163.263 50.2377C163.468 50.4617 163.715 50.6344 164.005 50.7557C164.303 50.8677 164.719 50.9984 165.251 51.1477C165.895 51.3251 166.413 51.5024 166.805 51.6797C167.197 51.8477 167.533 52.1137 167.812 52.4778C168.093 52.8324 168.233 53.3177 168.233 53.9337C168.233 54.4097 168.107 54.8577 167.855 55.2777C167.603 55.6977 167.229 56.0384 166.735 56.2997C166.24 56.5611 165.657 56.6918 164.985 56.6918ZM173.453 56.7198C172.735 56.7198 172.081 56.5564 171.493 56.2297C170.915 55.9031 170.457 55.4411 170.121 54.8438C169.795 54.2371 169.631 53.5371 169.631 52.7437C169.631 51.9597 169.799 51.2691 170.135 50.6717C170.481 50.0651 170.947 49.6031 171.535 49.2857C172.123 48.9591 172.781 48.7957 173.509 48.7957C174.237 48.7957 174.895 48.9591 175.483 49.2857C176.071 49.6031 176.533 50.0604 176.869 50.6577C177.215 51.2551 177.387 51.9504 177.387 52.7437C177.387 53.5371 177.21 54.2371 176.855 54.8438C176.51 55.4411 176.039 55.9031 175.441 56.2297C174.844 56.5564 174.181 56.7198 173.453 56.7198ZM173.453 55.5997C173.911 55.5997 174.34 55.4924 174.741 55.2777C175.143 55.0631 175.465 54.7411 175.707 54.3117C175.959 53.8824 176.085 53.3597 176.085 52.7437C176.085 52.1277 175.964 51.6051 175.721 51.1757C175.479 50.7464 175.161 50.4291 174.769 50.2237C174.377 50.0091 173.953 49.9017 173.495 49.9017C173.029 49.9017 172.599 50.0091 172.207 50.2237C171.825 50.4291 171.517 50.7464 171.283 51.1757C171.05 51.6051 170.933 52.1277 170.933 52.7437C170.933 53.3691 171.045 53.8964 171.269 54.3257C171.503 54.7551 171.811 55.0771 172.193 55.2917C172.576 55.4971 172.996 55.5997 173.453 55.5997ZM180.336 46.2337V56.5938H179.062V46.2337H180.336ZM189.312 48.9217V56.5938H188.038V55.4597C187.795 55.8517 187.454 56.1597 187.016 56.3837C186.586 56.5984 186.11 56.7058 185.588 56.7058C184.99 56.7058 184.454 56.5844 183.978 56.3417C183.502 56.0897 183.124 55.7164 182.844 55.2217C182.573 54.7271 182.438 54.1251 182.438 53.4157V48.9217H183.698V53.2477C183.698 54.0037 183.889 54.5871 184.272 54.9977C184.654 55.3991 185.177 55.5997 185.84 55.5997C186.521 55.5997 187.058 55.3897 187.45 54.9697C187.842 54.5497 188.038 53.9384 188.038 53.1357V48.9217H189.312ZM193.017 49.9717V54.4937C193.017 54.8671 193.096 55.1331 193.255 55.2917C193.413 55.4411 193.689 55.5157 194.081 55.5157H195.019V56.5938H193.871C193.161 56.5938 192.629 56.4304 192.275 56.1037C191.92 55.7771 191.743 55.2404 191.743 54.4937V49.9717H190.749V48.9217H191.743V46.9897H193.017V48.9217H195.019V49.9717H193.017ZM197.22 47.6757C196.978 47.6757 196.772 47.5917 196.604 47.4237C196.436 47.2557 196.352 47.0504 196.352 46.8077C196.352 46.5651 196.436 46.3597 196.604 46.1917C196.772 46.0237 196.978 45.9397 197.22 45.9397C197.454 45.9397 197.65 46.0237 197.808 46.1917C197.976 46.3597 198.06 46.5651 198.06 46.8077C198.06 47.0504 197.976 47.2557 197.808 47.4237C197.65 47.5917 197.454 47.6757 197.22 47.6757ZM197.836 48.9217V56.5938H196.562V48.9217H197.836ZM203.354 56.7198C202.635 56.7198 201.982 56.5564 201.394 56.2297C200.815 55.9031 200.358 55.4411 200.022 54.8438C199.695 54.2371 199.532 53.5371 199.532 52.7437C199.532 51.9597 199.7 51.2691 200.036 50.6717C200.381 50.0651 200.848 49.6031 201.436 49.2857C202.024 48.9591 202.682 48.7957 203.41 48.7957C204.138 48.7957 204.796 48.9591 205.384 49.2857C205.972 49.6031 206.434 50.0604 206.77 50.6577C207.115 51.2551 207.288 51.9504 207.288 52.7437C207.288 53.5371 207.11 54.2371 206.756 54.8438C206.41 55.4411 205.939 55.9031 205.342 56.2297C204.744 56.5564 204.082 56.7198 203.354 56.7198ZM203.354 55.5997C203.811 55.5997 204.24 55.4924 204.642 55.2777C205.043 55.0631 205.365 54.7411 205.608 54.3117C205.86 53.8824 205.986 53.3597 205.986 52.7437C205.986 52.1277 205.864 51.6051 205.622 51.1757C205.379 50.7464 205.062 50.4291 204.67 50.2237C204.278 50.0091 203.853 49.9017 203.396 49.9017C202.929 49.9017 202.5 50.0091 202.108 50.2237C201.725 50.4291 201.417 50.7464 201.184 51.1757C200.95 51.6051 200.834 52.1277 200.834 52.7437C200.834 53.3691 200.946 53.8964 201.17 54.3257C201.403 54.7551 201.711 55.0771 202.094 55.2917C202.476 55.4971 202.896 55.5997 203.354 55.5997ZM212.701 48.7817C213.634 48.7817 214.39 49.0664 214.969 49.6357C215.547 50.1957 215.837 51.0077 215.837 52.0717V56.5938H214.577V52.2537C214.577 51.4884 214.385 50.9051 214.003 50.5037C213.62 50.0931 213.097 49.8877 212.435 49.8877C211.763 49.8877 211.226 50.0977 210.825 50.5177C210.433 50.9377 210.237 51.5491 210.237 52.3517V56.5938H208.963V48.9217H210.237V50.0137C210.489 49.6217 210.829 49.3184 211.259 49.1037C211.697 48.8891 212.178 48.7817 212.701 48.7817ZM220.634 56.7198C220.046 56.7198 219.519 56.6218 219.052 56.4257C218.585 56.2204 218.217 55.9404 217.946 55.5857C217.675 55.2217 217.526 54.8064 217.498 54.3397H218.814C218.851 54.7224 219.029 55.0351 219.346 55.2777C219.673 55.5204 220.097 55.6417 220.62 55.6417C221.105 55.6417 221.488 55.5344 221.768 55.3197C222.048 55.1051 222.188 54.8344 222.188 54.5077C222.188 54.1717 222.039 53.9244 221.74 53.7657C221.441 53.5977 220.979 53.4344 220.354 53.2757C219.785 53.1264 219.318 52.9771 218.954 52.8277C218.599 52.6691 218.291 52.4404 218.03 52.1417C217.778 51.8337 217.652 51.4324 217.652 50.9377C217.652 50.5457 217.769 50.1864 218.002 49.8597C218.235 49.5331 218.567 49.2764 218.996 49.0897C219.425 48.8937 219.915 48.7957 220.466 48.7957C221.315 48.7957 222.001 49.0104 222.524 49.4397C223.047 49.8691 223.327 50.4571 223.364 51.2037H222.09C222.062 50.8024 221.899 50.4804 221.6 50.2377C221.311 49.9951 220.919 49.8737 220.424 49.8737C219.967 49.8737 219.603 49.9717 219.332 50.1677C219.061 50.3637 218.926 50.6204 218.926 50.9377C218.926 51.1897 219.005 51.3997 219.164 51.5677C219.332 51.7264 219.537 51.8571 219.78 51.9597C220.032 52.0531 220.377 52.1604 220.816 52.2817C221.367 52.4311 221.815 52.5804 222.16 52.7297C222.505 52.8697 222.799 53.0844 223.042 53.3737C223.294 53.6631 223.425 54.0411 223.434 54.5077C223.434 54.9277 223.317 55.3057 223.084 55.6417C222.851 55.9777 222.519 56.2437 222.09 56.4397C221.67 56.6264 221.185 56.7198 220.634 56.7198Z" fill="white"/>
</svg>
