<svg width="150" height="150" viewBox="0 0 150 150" fill="none" xmlns="http://www.w3.org/2000/svg">
<path d="M75 13.125C40.8472 13.125 13.125 40.8472 13.125 75C13.125 109.153 40.8472 136.875 75 136.875C109.153 136.875 136.875 109.153 136.875 75C136.875 40.8472 109.153 13.125 75 13.125ZM75 16.875C107.124 16.875 133.125 42.876 133.125 75C133.125 107.124 107.124 133.125 75 133.125C42.876 133.125 16.875 107.124 16.875 75C16.875 42.876 42.876 16.875 75 16.875ZM75 22.5C73.9673 22.5 73.125 23.3423 73.125 24.375C73.125 25.4077 73.9673 26.25 75 26.25C76.0327 26.25 76.875 25.4077 76.875 24.375C76.875 23.3423 76.0327 22.5 75 22.5ZM84.9243 23.4668C84.0088 23.4448 83.2178 24.082 83.0347 24.9829C82.8369 25.9937 83.4961 26.9824 84.5142 27.1875C85.5249 27.3853 86.5137 26.7261 86.7188 25.7153C86.9165 24.6973 86.2573 23.7085 85.2466 23.5034C85.1367 23.4888 85.0342 23.4741 84.9243 23.4668ZM65.1343 23.4741C65.0098 23.4741 64.8853 23.4814 64.7607 23.5034C63.7427 23.7085 63.0835 24.6973 63.2886 25.7153C63.3838 26.1987 63.6694 26.6309 64.0869 26.9092C64.4971 27.1802 65.0024 27.2827 65.4932 27.1875C66.5112 26.9824 67.1704 26.001 66.9653 24.9829C66.7896 24.1113 66.0278 23.4814 65.1343 23.4741ZM55.6421 26.3525C55.3931 26.3525 55.144 26.3965 54.9097 26.4917C53.9502 26.8945 53.4961 27.9858 53.8989 28.9453C54.2944 29.9048 55.3857 30.3589 56.3452 29.9634C57.3047 29.5605 57.7588 28.4692 57.3633 27.5098C57.0703 26.814 56.3965 26.3599 55.6421 26.3525ZM94.4165 26.3525C93.6401 26.3379 92.937 26.792 92.6367 27.5098C92.2412 28.4692 92.6953 29.5605 93.6548 29.9634C94.6143 30.3589 95.7056 29.9048 96.1011 28.9453C96.5039 27.9858 96.0498 26.8945 95.0903 26.4917C94.8779 26.4038 94.6436 26.3599 94.4165 26.3525ZM46.897 31.0254C46.5161 31.0254 46.1426 31.1353 45.8276 31.3477C44.9707 31.9189 44.7363 33.0835 45.3149 33.9478C45.8862 34.8047 47.0508 35.0391 47.915 34.4604C48.7793 33.8892 49.0063 32.7246 48.4351 31.8677C48.0908 31.3477 47.5122 31.0327 46.897 31.0254ZM103.154 31.0254C102.517 31.0181 101.917 31.333 101.565 31.8677C100.986 32.7246 101.221 33.8892 102.078 34.4604C102.942 35.0391 104.106 34.8047 104.678 33.9478C104.956 33.5376 105.059 33.0249 104.963 32.5415C104.868 32.0508 104.583 31.6187 104.165 31.3477C103.865 31.1426 103.521 31.0327 103.154 31.0254ZM39.2285 37.3242C38.7231 37.3242 38.2324 37.522 37.8809 37.8809C37.1484 38.606 37.1484 39.7998 37.8809 40.5249C38.606 41.2573 39.7998 41.2573 40.5249 40.5249C41.2573 39.7998 41.2573 38.606 40.5249 37.8809C40.1807 37.5293 39.7192 37.3315 39.2285 37.3242ZM110.823 37.3242C110.317 37.3242 109.827 37.522 109.475 37.8809C108.743 38.606 108.743 39.7998 109.475 40.5249C110.2 41.2573 111.394 41.2573 112.119 40.5249C112.852 39.7998 112.852 38.606 112.119 37.8809C111.775 37.5293 111.313 37.3315 110.823 37.3242ZM117.114 45C116.733 44.9927 116.367 45.1025 116.052 45.3149C115.195 45.8862 114.961 47.0508 115.54 47.9077C116.111 48.772 117.275 49.0063 118.132 48.4277C118.997 47.8491 119.231 46.6919 118.652 45.8276C118.308 45.3149 117.729 45 117.114 45ZM32.937 45C32.2998 44.9854 31.6992 45.3003 31.3477 45.8276C30.7764 46.6919 31.0034 47.8564 31.8677 48.4277C32.7319 49.0063 33.8892 48.772 34.4678 47.915C35.0391 47.0508 34.812 45.8862 33.9478 45.3149C33.6475 45.1172 33.3032 45.0073 32.937 45ZM96.5991 53.335L95.2734 54.6606L69.2285 80.7129L56.5137 69.1187L47.9956 78.9478L69.8145 98.4668L105.776 62.5122L96.5991 53.335ZM121.787 53.7524C121.538 53.7451 121.289 53.7964 121.055 53.8916C120.095 54.2871 119.641 55.3857 120.037 56.3379C120.439 57.2974 121.531 57.7515 122.49 57.356C123.45 56.9604 123.904 55.8618 123.508 54.9023C123.215 54.2139 122.542 53.7524 121.787 53.7524ZM28.2715 53.7524C27.4951 53.7378 26.792 54.1919 26.499 54.9097C26.1035 55.8691 26.5576 56.9604 27.5098 57.3633C28.4692 57.7588 29.5679 57.3047 29.9634 56.3452C30.3589 55.3857 29.9048 54.2944 28.9453 53.8989C28.7329 53.8037 28.5059 53.7598 28.2715 53.7524ZM96.5991 58.6377L100.474 62.5122L69.6753 93.3105L53.2544 78.6108L56.8286 74.48L69.3457 85.8911L96.5991 58.6377ZM124.658 63.252C124.534 63.2446 124.409 63.2593 124.285 63.2812C123.274 63.4863 122.615 64.4751 122.812 65.4858C123.018 66.5039 124.006 67.1631 125.017 66.9653C126.035 66.7603 126.694 65.7715 126.497 64.7534C126.321 63.8818 125.552 63.252 124.658 63.252ZM25.4004 63.252C24.4849 63.23 23.6938 63.8599 23.5107 64.7534C23.4155 65.2441 23.5107 65.7568 23.7891 66.167C24.0674 66.5845 24.4995 66.8701 24.9902 66.9653C25.4736 67.0605 25.979 66.958 26.3965 66.687C26.8066 66.4087 27.0923 65.9766 27.1875 65.4858C27.3926 64.4751 26.7334 63.4863 25.7227 63.2812C25.6128 63.2666 25.5103 63.252 25.4004 63.252ZM24.375 73.125C23.3423 73.125 22.5 73.9673 22.5 75C22.5 76.0327 23.3423 76.875 24.375 76.875C25.4077 76.875 26.25 76.0327 26.25 75C26.25 73.9673 25.4077 73.125 24.375 73.125ZM125.625 73.125C124.592 73.125 123.75 73.9673 123.75 75C123.75 76.0327 124.592 76.875 125.625 76.875C126.658 76.875 127.5 76.0327 127.5 75C127.5 73.9673 126.658 73.125 125.625 73.125ZM25.3564 82.998C25.2319 82.998 25.1074 83.0127 24.9829 83.0347C23.9648 83.2397 23.3057 84.2285 23.5107 85.2466C23.7158 86.2573 24.6973 86.9165 25.7153 86.7188C26.7334 86.5137 27.3926 85.5249 27.1875 84.5142C27.0117 83.6353 26.25 83.0054 25.3564 82.998ZM124.702 82.998C123.787 82.9761 122.996 83.6133 122.812 84.5142C122.615 85.5249 123.274 86.5137 124.285 86.7188C125.303 86.9165 126.292 86.2573 126.497 85.2466C126.694 84.2285 126.035 83.2397 125.017 83.0347C124.915 83.02 124.812 83.0054 124.702 82.998ZM121.816 92.4902C121.04 92.4756 120.337 92.937 120.037 93.6548C119.641 94.6069 120.095 95.7056 121.055 96.1011C122.014 96.4966 123.105 96.0425 123.508 95.0903C123.904 94.1309 123.45 93.0322 122.49 92.6367C122.278 92.5488 122.043 92.4976 121.816 92.4902ZM28.2422 92.4976C27.9932 92.4976 27.7441 92.5415 27.5098 92.6367C27.0557 92.8271 26.6895 93.1934 26.499 93.6548C26.3086 94.1162 26.3086 94.6289 26.4917 95.0903C26.8945 96.0498 27.9858 96.5039 28.9453 96.1011C29.4067 95.918 29.7729 95.5518 29.9634 95.0903C30.1538 94.6289 30.1538 94.1162 29.9634 93.6548C29.6777 92.959 28.9966 92.5049 28.2422 92.4976ZM117.129 101.25C116.492 101.235 115.891 101.55 115.54 102.078C114.961 102.942 115.195 104.099 116.052 104.678C116.462 104.956 116.975 105.059 117.458 104.956C117.949 104.861 118.381 104.575 118.652 104.158C119.231 103.301 118.997 102.136 118.132 101.565C117.839 101.36 117.488 101.25 117.129 101.25ZM32.9297 101.25C32.5488 101.243 32.1826 101.353 31.8677 101.565C31.0107 102.144 30.7764 103.301 31.3477 104.165C31.9263 105.022 33.0908 105.256 33.9551 104.678C34.812 104.106 35.0464 102.942 34.4678 102.078C34.1235 101.565 33.5449 101.257 32.9297 101.25ZM39.2285 108.926C38.7231 108.918 38.2324 109.116 37.8809 109.475C37.1484 110.2 37.1484 111.394 37.8809 112.119C38.606 112.852 39.7998 112.852 40.5249 112.119C41.2573 111.394 41.2573 110.2 40.5249 109.475C40.1807 109.124 39.7192 108.926 39.2285 108.926ZM110.823 108.926C110.317 108.918 109.827 109.116 109.475 109.475C108.743 110.2 108.743 111.394 109.475 112.119C110.2 112.852 111.394 112.852 112.119 112.119C112.852 111.394 112.852 110.2 112.119 109.475C111.775 109.124 111.313 108.926 110.823 108.926ZM46.9116 115.217C46.2744 115.203 45.6738 115.518 45.3223 116.045C44.7437 116.909 44.978 118.074 45.8423 118.652C46.6992 119.224 47.8638 118.989 48.4351 118.132C49.0137 117.268 48.7793 116.111 47.9224 115.532C47.6221 115.334 47.2705 115.217 46.9116 115.217ZM103.147 115.217C102.766 115.21 102.4 115.32 102.085 115.525C101.667 115.803 101.382 116.235 101.287 116.726C101.191 117.209 101.294 117.722 101.572 118.132C102.144 118.989 103.308 119.224 104.172 118.652C105.029 118.074 105.264 116.909 104.685 116.045C104.348 115.532 103.77 115.217 103.147 115.217ZM55.6714 119.89C54.895 119.875 54.1919 120.337 53.8989 121.055C53.5034 122.007 53.9575 123.105 54.9097 123.501C55.8691 123.896 56.9678 123.442 57.3633 122.49C57.7588 121.531 57.3047 120.432 56.3452 120.037C56.1328 119.949 55.9058 119.897 55.6714 119.89ZM94.3872 119.89C94.1382 119.89 93.8892 119.941 93.6621 120.037C93.2007 120.227 92.8345 120.593 92.644 121.047C92.4536 121.509 92.4536 122.029 92.6367 122.49C93.0396 123.442 94.1309 123.896 95.0903 123.501C95.5518 123.311 95.918 122.944 96.1084 122.49C96.2988 122.029 96.2988 121.509 96.1084 121.055C95.8228 120.352 95.1416 119.897 94.3872 119.89ZM65.1782 122.776C64.2627 122.754 63.4644 123.391 63.2886 124.285C63.0835 125.303 63.7427 126.284 64.7607 126.489C65.7788 126.694 66.7603 126.035 66.9653 125.017C67.1704 123.999 66.5112 123.018 65.4932 122.812C65.3906 122.791 65.2808 122.776 65.1782 122.776ZM84.8804 122.783C84.7559 122.776 84.6313 122.791 84.5142 122.812C83.4961 123.018 82.8369 123.999 83.0347 125.017C83.1372 125.508 83.4229 125.933 83.833 126.211C84.2505 126.489 84.7559 126.592 85.2466 126.497C85.73 126.394 86.1621 126.108 86.4404 125.698C86.7114 125.281 86.814 124.775 86.7188 124.285C86.543 123.413 85.7739 122.783 84.8804 122.783ZM75 123.75C73.9673 123.75 73.125 124.592 73.125 125.625C73.125 126.658 73.9673 127.5 75 127.5C76.0327 127.5 76.875 126.658 76.875 125.625C76.875 124.592 76.0327 123.75 75 123.75Z" fill="#B1454A"/>
</svg>
